<svg width="20" height="19" viewBox="0 0 20 19" fill="none" xmlns="http://www.w3.org/2000/svg">
<path d="M9.96199 6.29553C8.22761 6.29553 6.81221 7.71093 6.81221 9.44531C6.81221 11.1797 8.22761 12.5951 9.96199 12.5951C11.6964 12.5951 13.1118 11.1797 13.1118 9.44531C13.1118 7.71093 11.6964 6.29553 9.96199 6.29553ZM19.409 9.44531C19.409 8.14098 19.4208 6.84846 19.3475 5.54649C19.2743 4.03421 18.9293 2.69207 17.8234 1.58623C16.7152 0.478013 15.3755 0.13539 13.8632 0.0621388C12.5588 -0.0111118 11.2663 0.000702838 9.96435 0.000702838C8.66002 0.000702838 7.3675 -0.0111118 6.06553 0.0621388C4.55326 0.13539 3.21112 0.480376 2.10527 1.58623C0.997057 2.69444 0.654432 4.03421 0.581182 5.54649C0.507931 6.85082 0.519746 8.14334 0.519746 9.44531C0.519746 10.7473 0.507931 12.0422 0.581182 13.3441C0.654432 14.8564 0.99942 16.1986 2.10527 17.3044C3.21348 18.4126 4.55326 18.7552 6.06553 18.8285C7.36986 18.9017 8.66238 18.8899 9.96435 18.8899C11.2687 18.8899 12.5612 18.9017 13.8632 18.8285C15.3755 18.7552 16.7176 18.4102 17.8234 17.3044C18.9317 16.1962 19.2743 14.8564 19.3475 13.3441C19.4231 12.0422 19.409 10.7496 19.409 9.44531ZM9.96199 14.2917C7.28007 14.2917 5.11563 12.1272 5.11563 9.44531C5.11563 6.76339 7.28007 4.59895 9.96199 4.59895C12.6439 4.59895 14.8084 6.76339 14.8084 9.44531C14.8084 12.1272 12.6439 14.2917 9.96199 14.2917ZM15.0068 5.53231C14.3807 5.53231 13.875 5.02664 13.875 4.40047C13.875 3.77429 14.3807 3.26863 15.0068 3.26863C15.633 3.26863 16.1387 3.77429 16.1387 4.40047C16.1389 4.54916 16.1097 4.69642 16.0529 4.83383C15.9961 4.97123 15.9127 5.09608 15.8076 5.20122C15.7024 5.30636 15.5776 5.38972 15.4402 5.44653C15.3028 5.50335 15.1555 5.5325 15.0068 5.53231Z" fill="white"/>
</svg>
