<svg width="54" height="48" viewBox="0 0 54 48" fill="none" xmlns="http://www.w3.org/2000/svg">
<path d="M51 21.3333H45.6666V5.33333H48.3333V0H5.66665V5.33333H8.33331V21.3333H2.99998C2.29274 21.3333 1.61446 21.6143 1.11436 22.1144C0.614264 22.6145 0.333313 23.2928 0.333313 24V48H53.6666V24C53.6666 23.2928 53.3857 22.6145 52.8856 22.1144C52.3855 21.6143 51.7072 21.3333 51 21.3333ZM32.3333 42.6667V32H21.6666V42.6667H13.6666V5.33333H40.3333V42.6667H32.3333Z" fill="#99D656"/>
<path d="M19 10.6667H24.3333V16.0001H19V10.6667ZM29.6666 10.6667H35V16.0001H29.6666V10.6667ZM19 21.3334H24.3333V26.6667H19V21.3334ZM29.6666 21.3334H35V26.6667H29.6666V21.3334Z" fill="#2C2C2C"/>
</svg>
