<svg width="50" height="48" viewBox="0 0 50 48" fill="none" xmlns="http://www.w3.org/2000/svg">
<path d="M23.485 19.5V14.625C23.485 14.3266 23.3653 14.0405 23.1522 13.8295C22.9391 13.6185 22.6501 13.5 22.3487 13.5H12.5012C12.1999 13.5 11.9109 13.6185 11.6978 13.8295C11.4847 14.0405 11.365 14.3266 11.365 14.625V19.5H23.485ZM11.365 39V43.875C11.365 44.1734 11.4847 44.4595 11.6978 44.6705C11.9109 44.8815 12.1999 45 12.5012 45H22.3487C22.6501 45 22.9391 44.8815 23.1522 44.6705C23.3653 44.4595 23.485 44.1734 23.485 43.875V39H11.365ZM11.365 22.5H23.485V36H11.365V22.5Z" fill="#99D656"/>
<path d="M3.41124 45H8.71374C9.0151 45 9.30411 44.8815 9.51719 44.6705C9.73028 44.4595 9.84999 44.1734 9.84999 43.875V8.625C9.84999 8.32663 9.73028 8.04048 9.51719 7.8295C9.30411 7.61853 9.0151 7.5 8.71374 7.5H3.41124C3.10989 7.5 2.82088 7.61853 2.60779 7.8295C2.39471 8.04048 2.27499 8.32663 2.27499 8.625V43.875C2.27499 44.1734 2.39471 44.4595 2.60779 44.6705C2.82088 44.8815 3.10989 45 3.41124 45Z" fill="#99D656"/>
<path d="M26.1362 45H32.9537C33.2551 45 33.5441 44.8815 33.7572 44.6705C33.9703 44.4595 34.09 44.1734 34.09 43.875V4.125C34.09 3.82663 33.9703 3.54048 33.7572 3.3295C33.5441 3.11853 33.2551 3 32.9537 3H26.1362C25.8349 3 25.5459 3.11853 25.3328 3.3295C25.1197 3.54048 25 3.82663 25 4.125V43.875C25 44.1734 25.1197 44.4595 25.3328 44.6705C25.5459 44.8815 25.8349 45 26.1362 45Z" fill="#2C2C2C"/>
<path d="M38.5403 43.9247L35.6997 9.44064C35.6752 9.14815 35.7672 8.85779 35.956 8.63151C36.1447 8.40522 36.4153 8.26091 36.71 8.22939L43.5398 7.52532C43.6902 7.50984 43.8422 7.52422 43.9868 7.56763C44.1315 7.61103 44.266 7.68259 44.3824 7.7781C44.4988 7.87362 44.5948 7.99118 44.6647 8.12388C44.7347 8.25659 44.7771 8.40178 44.7897 8.55095L47.6379 42.8953C47.6621 43.1846 47.5725 43.472 47.3878 43.6973C47.203 43.9227 46.9374 44.0687 46.6465 44.1047L39.8139 44.9485C39.6618 44.9673 39.5075 44.9555 39.3601 44.9138C39.2128 44.872 39.0755 44.8012 38.9565 44.7055C38.8375 44.6099 38.7393 44.4914 38.6678 44.3572C38.5963 44.223 38.5529 44.0759 38.5403 43.9247Z" fill="#99D656"/>
</svg>
