<svg width="19" height="19" viewBox="0 0 19 19" fill="none" xmlns="http://www.w3.org/2000/svg">
<path fill-rule="evenodd" clip-rule="evenodd" d="M0.109375 1.57823C0.109375 1.15966 0.275652 0.758228 0.571627 0.462254C0.867602 0.166279 1.26903 2.104e-06 1.6876 2.104e-06H17.4201C17.6275 -0.000336684 17.8329 0.0402416 18.0247 0.119414C18.2164 0.198586 18.3906 0.314797 18.5374 0.461394C18.6841 0.607991 18.8005 0.782094 18.8799 0.973736C18.9593 1.16538 19.0001 1.3708 19 1.57823V17.3107C19.0002 17.5182 18.9595 17.7236 18.8803 17.9154C18.801 18.1071 18.6847 18.2813 18.5381 18.4281C18.3914 18.5748 18.2172 18.6912 18.0255 18.7706C17.8338 18.8499 17.6284 18.8907 17.4209 18.8906H1.6876C1.48027 18.8906 1.27498 18.8498 1.08344 18.7704C0.891906 18.691 0.717886 18.5747 0.571323 18.4281C0.42476 18.2814 0.308527 18.1073 0.229264 17.9158C0.150001 17.7242 0.109262 17.5189 0.109375 17.3115V1.57823ZM7.58663 7.20248H10.1446V8.48704C10.5138 7.74859 11.4583 7.08399 12.8777 7.08399C15.5988 7.08399 16.2437 8.55488 16.2437 11.2537V16.2528H13.4899V11.8685C13.4899 10.3315 13.1207 9.4642 12.1831 9.4642C10.8822 9.4642 10.3412 10.3993 10.3412 11.8685V16.2528H7.58663V7.20248ZM2.86397 16.1352H5.61857V7.08399H2.86397V16.1343V16.1352ZM6.0127 4.1319C6.01789 4.36775 5.97592 4.60226 5.88925 4.82167C5.80259 5.04109 5.67297 5.24098 5.508 5.40962C5.34303 5.57826 5.14604 5.71225 4.92859 5.80372C4.71114 5.8952 4.47761 5.94232 4.2417 5.94232C4.00579 5.94232 3.77226 5.8952 3.55481 5.80372C3.33735 5.71225 3.14037 5.57826 2.9754 5.40962C2.81043 5.24098 2.68081 5.04109 2.59415 4.82167C2.50748 4.60226 2.46551 4.36775 2.4707 4.1319C2.4809 3.66895 2.67196 3.2284 3.00298 2.9046C3.33399 2.58079 3.77864 2.39947 4.2417 2.39947C4.70476 2.39947 5.14941 2.58079 5.48042 2.9046C5.81144 3.2284 6.0025 3.66895 6.0127 4.1319Z" fill="white"/>
</svg>
