<svg width="46" height="48" viewBox="0 0 46 48" fill="none" xmlns="http://www.w3.org/2000/svg">
<path fill-rule="evenodd" clip-rule="evenodd" d="M23.0509 0C17.0278 0 11.5393 1.9895 8.29236 3.61497C7.999 3.76165 7.72564 3.90566 7.47096 4.04434C6.96691 4.31903 6.53755 4.57505 6.19618 4.8004L9.88982 10.2382L11.6286 10.9302C18.4239 14.3585 27.5366 14.3585 34.3332 10.9302L36.3067 9.90616L39.8003 4.8004C39.0766 4.32835 38.3239 3.90215 37.5468 3.52429C34.3172 1.91616 28.9608 0 23.0509 0ZM14.4595 6.15518C13.1516 5.91042 11.8598 5.58624 10.5912 5.18443C13.6328 3.83365 18.1665 2.4002 23.0496 2.4002C26.4325 2.4002 29.6315 3.08826 32.277 3.96033C29.1768 4.39637 25.8685 5.13643 22.7162 6.04717C20.236 6.76456 17.3371 6.68722 14.4595 6.15518ZM35.7413 12.9077L35.4146 13.0731C27.938 16.8441 18.0225 16.8441 10.5459 13.0731L10.2365 12.9157C-0.993749 25.2381 -9.56779 48 23.0509 48C55.667 48 46.8836 24.8127 35.7413 12.9077ZM21.6641 24.002C20.9568 24.002 20.2785 24.283 19.7784 24.7831C19.2782 25.2833 18.9973 25.9616 18.9973 26.6689C18.9973 27.3762 19.2782 28.0545 19.7784 28.5547C20.2785 29.0548 20.9568 29.3358 21.6641 29.3358V24.002ZM24.331 21.3351V20.0017H21.6641V21.3351C20.2495 21.3351 18.8929 21.8971 17.8926 22.8973C16.8923 23.8976 16.3304 25.2543 16.3304 26.6689C16.3304 28.0835 16.8923 29.4402 17.8926 30.4404C18.8929 31.4407 20.2495 32.0027 21.6641 32.0027V37.3364C21.1126 37.3366 20.5746 37.1657 20.1242 36.8474C19.6738 36.5291 19.3332 36.0789 19.1493 35.559C19.0315 35.2255 18.7861 34.9524 18.467 34.7999C18.1479 34.6473 17.7813 34.6278 17.4478 34.7456C17.1143 34.8633 16.8412 35.1087 16.6887 35.4278C16.5362 35.7469 16.5166 36.1135 16.6344 36.447C17.0022 37.4871 17.6834 38.3875 18.5842 39.0244C19.4849 39.6613 20.561 40.0033 21.6641 40.0033V41.3368H24.331V40.0033C25.7456 40.0033 27.1023 39.4414 28.1026 38.4411C29.1029 37.4408 29.6648 36.0842 29.6648 34.6696C29.6648 33.2549 29.1029 31.8983 28.1026 30.898C27.1023 29.8977 25.7456 29.3358 24.331 29.3358V24.002C25.4911 24.002 26.4792 24.7421 26.8472 25.7795C26.9018 25.9492 26.9899 26.1063 27.1063 26.2414C27.2226 26.3764 27.3649 26.4868 27.5247 26.566C27.6844 26.6451 27.8585 26.6914 28.0364 26.7021C28.2144 26.7129 28.3927 26.6878 28.5608 26.6284C28.7289 26.569 28.8834 26.4765 29.0152 26.3563C29.1469 26.2362 29.2532 26.0909 29.3278 25.9289C29.4024 25.767 29.4437 25.5917 29.4494 25.4135C29.4551 25.2353 29.4249 25.0578 29.3608 24.8914C28.993 23.8514 28.3118 22.9509 27.411 22.314C26.5103 21.6771 25.4342 21.3351 24.331 21.3351ZM24.331 32.0027V37.3364C25.0383 37.3364 25.7167 37.0555 26.2168 36.5553C26.7169 36.0552 26.9979 35.3769 26.9979 34.6696C26.9979 33.9622 26.7169 33.2839 26.2168 32.7838C25.7167 32.2836 25.0383 32.0027 24.331 32.0027Z" fill="#99D656"/>
<path fill-rule="evenodd" clip-rule="evenodd" d="M21.6665 24.0003C20.9592 24.0003 20.2809 24.2813 19.7807 24.7814C19.2806 25.2816 18.9996 25.9599 18.9996 26.6672C18.9996 27.3745 19.2806 28.0529 19.7807 28.553C20.2809 29.0531 20.9592 29.3341 21.6665 29.3341V24.0003ZM24.3334 21.3334V20H21.6665V21.3334C20.2519 21.3334 18.8952 21.8954 17.895 22.8957C16.8947 23.896 16.3327 25.2526 16.3327 26.6672C16.3327 28.0818 16.8947 29.4385 17.895 30.4388C18.8952 31.439 20.2519 32.001 21.6665 32.001V37.3348C21.115 37.3349 20.577 37.1641 20.1266 36.8457C19.6762 36.5274 19.3356 36.0773 19.1516 35.5573C19.0339 35.2238 18.7884 34.9508 18.4694 34.7982C18.1503 34.6457 17.7837 34.6261 17.4502 34.7439C17.1167 34.8617 16.8436 35.1071 16.6911 35.4262C16.5385 35.7453 16.519 36.1119 16.6368 36.4454C17.0046 37.4854 17.6858 38.3859 18.5865 39.0228C19.4873 39.6597 20.5633 40.0016 21.6665 40.0017V41.3351H24.3334V40.0017C25.748 40.0017 27.1047 39.4397 28.1049 38.4394C29.1052 37.4392 29.6672 36.0825 29.6672 34.6679C29.6672 33.2533 29.1052 31.8966 28.1049 30.8963C27.1047 29.8961 25.748 29.3341 24.3334 29.3341V24.0003C25.4935 24.0003 26.4816 24.7404 26.8496 25.7778C26.9042 25.9475 26.9923 26.1046 27.1087 26.2397C27.225 26.3748 27.3673 26.4852 27.5271 26.5643C27.6868 26.6435 27.8608 26.6898 28.0388 26.7005C28.2168 26.7112 28.3951 26.6861 28.5632 26.6267C28.7313 26.5673 28.8858 26.4748 29.0175 26.3547C29.1493 26.2345 29.2556 26.0892 29.3302 25.9272C29.4047 25.7653 29.4461 25.59 29.4518 25.4118C29.4574 25.2336 29.4273 25.0561 29.3632 24.8897C28.9953 23.8497 28.3142 22.9492 27.4134 22.3123C26.5126 21.6755 25.4366 21.3335 24.3334 21.3334ZM24.3334 32.001V37.3348C25.0407 37.3348 25.719 37.0538 26.2192 36.5537C26.7193 36.0535 27.0003 35.3752 27.0003 34.6679C27.0003 33.9606 26.7193 33.2823 26.2192 32.7821C25.719 32.282 25.0407 32.001 24.3334 32.001Z" fill="#2C2C2C"/>
</svg>
