<svg width="25" height="19" viewBox="0 0 25 19" fill="none" xmlns="http://www.w3.org/2000/svg">
<path d="M24.138 2.23765C23.4658 3.20091 22.6412 4.02204 21.6641 4.70104C21.6737 4.88315 21.6785 5.08897 21.6785 5.31852C21.6785 6.59392 21.4855 7.87087 21.0995 9.14936C20.7135 10.4279 20.1239 11.6516 19.3306 12.8206C18.5374 13.9896 17.5924 15.0253 16.4959 15.9275C15.3993 16.8298 14.0812 17.5492 12.5415 18.0858C11.0018 18.6223 9.35162 18.8906 7.59104 18.8906C4.84335 18.8906 2.31301 18.176 0 16.7467C0.410532 16.7907 0.804266 16.8127 1.1812 16.8127C3.47667 16.8127 5.52689 16.1315 7.33186 14.7692C6.26159 14.7503 5.30307 14.4328 4.45633 13.8169C3.60958 13.201 3.02686 12.414 2.70819 11.4558C3.02318 11.5136 3.33406 11.5425 3.64084 11.5425C4.08243 11.5425 4.51695 11.487 4.9444 11.3761C3.80221 11.1557 2.85468 10.6076 2.10178 9.73182C1.34891 8.85606 0.97248 7.84527 0.97248 6.69944V6.64039C1.67356 7.01437 2.42137 7.2133 3.21591 7.23718C2.53929 6.8026 2.00283 6.23588 1.60653 5.53704C1.21021 4.83821 1.01205 4.08194 1.01205 3.26824C1.01205 2.41007 1.23525 1.61095 1.68167 0.870876C2.92377 2.33939 4.42884 3.51308 6.19688 4.39193C7.96494 5.2708 9.86172 5.7589 11.8872 5.85622C11.8009 5.50935 11.7576 5.14738 11.7574 4.77029C11.7574 3.45367 12.241 2.32946 13.2083 1.39768C14.1755 0.465893 15.3424 0 16.709 0C18.1398 0 19.345 0.50193 20.3245 1.50579C21.4437 1.29221 22.4916 0.905905 23.4683 0.346869C23.092 1.48774 22.367 2.36784 21.2931 2.98717C22.2801 2.87418 23.2284 2.62434 24.138 2.23765H24.138Z" fill="white"/>
</svg>
