<svg width="60" height="60" viewBox="0 0 60 60" fill="none" xmlns="http://www.w3.org/2000/svg">
<path d="M53.7979 11.213C49.2518 6.76026 46.6765 4.23879 44.4921 2.102L42.3445 0.00121301L17.4554 0L15.3461 2.06135C11.0701 6.24021 4.18226 12.9894 2.22637 14.9166C1.11892 16.008 0.164978 16.9174 0.106391 16.9376C0.0387763 16.9609 0 21.6597 0 29.8368V42.6991L1.95479 44.6211C3.02987 45.6782 4.99853 47.6065 6.32955 48.9062C7.66045 50.206 9.79146 52.2923 11.0651 53.5424C12.3386 54.7926 14.2975 56.7119 15.418 57.8077L17.4554 59.7999L42.3445 59.7998L44.3819 57.8089C45.5025 56.7138 47.5357 54.7201 48.9002 53.3784C54.7262 47.6496 59.6089 42.895 59.701 42.861C59.7588 42.8395 59.7999 37.477 59.7999 29.9648V17.1053L58.0654 15.3997C57.1114 14.4615 55.1911 12.5775 53.7979 11.213Z" fill="#B3E879"/>
<path fill-rule="evenodd" clip-rule="evenodd" d="M28.2511 5.99464C28.4542 5.97793 28.6119 5.96496 28.6849 5.95492C29.3028 5.87009 32.73 6.04804 33.6664 6.19213C36.9028 6.69013 40.4007 7.95478 42.9178 9.63175C43.1531 9.78852 43.3823 9.9414 43.5685 10.0656C43.7837 10.2092 43.9415 10.3145 43.9853 10.3434C44.4896 10.6762 46.0128 11.9003 46.8319 12.7155C47.3842 13.2654 48.0327 14.0609 48.712 14.894C48.7965 14.9977 48.8815 15.1019 48.9668 15.2063C49.2122 15.5064 50.2715 17.1604 50.2715 17.2226C50.2715 17.2529 50.4457 17.5317 50.6273 17.8157C51.5078 19.1913 53.1471 23.1072 52.8809 23.2716C52.765 23.3431 46.5981 24.5763 46.3574 24.5763C46.2301 24.5763 46.0449 24.4856 45.883 23.9833C45.6713 23.3263 44.9937 21.8127 44.4597 20.8995C43.2009 18.7467 40.9793 16.6151 38.648 15.2063C36.4426 13.8736 33.7593 12.9628 31.0571 12.8342C26.5913 12.6216 22.2717 14.2911 18.9591 17.4599C18.2874 18.1024 16.9731 19.6721 16.5869 20.3064C16.5149 20.4247 16.4613 20.5488 16.4215 20.6407C16.3892 20.7153 16.3661 20.7688 16.3497 20.7809C16.251 20.8534 15.1041 23.0242 14.9264 23.5088C14.8421 23.739 14.7419 24.0473 14.6892 24.2205C14.6716 24.2785 14.6585 24.3339 14.6468 24.3832C14.6236 24.4808 14.6062 24.5544 14.5706 24.5763C14.4856 24.6288 13.1365 24.3732 11.9613 24.1019C11.7456 24.0521 10.7321 23.8235 9.70771 23.6274C9.20705 23.5317 8.74608 23.4475 8.40382 23.3851C8.04577 23.3197 7.81766 23.2781 7.80999 23.2716C7.79509 23.259 7.90467 22.8933 8.0472 22.4414C10.2202 15.5492 15.6267 9.81854 22.2801 7.37821C23.8037 6.81938 26.1293 6.20527 27.3802 6.07352C27.6907 6.04075 28.0044 6.01494 28.2511 5.99464ZM35.8014 7.2596C34.2003 6.88816 33.5275 6.78734 32.0059 6.66656C31.9179 6.65957 31.8275 6.65231 31.7365 6.645C31.1084 6.59457 30.4436 6.5412 30.2268 6.54796C26.9711 6.64885 24.0331 7.37473 21.3313 8.56428C19.3657 9.42971 17.0738 10.8677 15.5195 12.2411C14.84 12.8415 13.4217 14.3314 13.0287 14.8505C12.8208 15.1251 12.5109 15.4866 12.4357 15.5621C12.1827 15.8162 10.9715 17.7365 10.538 18.5273C9.79763 19.8779 8.62543 22.5453 8.75885 22.6786C8.81492 22.7346 13.2286 23.6614 13.859 23.7461C14.0646 23.7737 14.1114 23.7026 14.2148 23.3902C14.523 22.4591 15.6114 20.493 16.3497 19.4762C17.2439 18.2447 18.8445 16.5231 19.5521 16.0366C19.6729 15.9536 19.854 15.7465 19.908 15.6807C20.1195 15.4232 21.8759 14.3249 22.9918 13.783C25.3523 12.6369 27.597 12.1262 30.2268 12.1225C30.9292 12.1215 31.9049 12.1862 32.3618 12.2411C38.0877 12.9301 43.1407 16.4972 45.7644 21.7297C46.0623 22.3237 46.3574 22.9538 46.3574 23.0344C46.3574 23.0688 46.3484 23.0898 46.3419 23.105C46.3331 23.1255 46.3289 23.1354 46.3574 23.153C46.4072 23.1838 46.5581 23.3425 46.5947 23.5088C46.6045 23.5537 46.6114 23.5913 46.6171 23.6227C46.6447 23.7742 46.6455 23.7787 46.8319 23.7461C47.8081 23.5753 51.8034 22.8532 51.932 22.7972C52.0706 22.7369 52.0616 22.5961 51.6948 21.6111C51.4641 20.9916 50.9933 19.9763 50.7459 19.4762C50.642 19.2661 50.5417 19.0742 50.4603 18.9185C50.3479 18.7036 50.2715 18.5575 50.2715 18.5273C50.2715 18.5083 50.2778 18.4874 50.2836 18.4684C50.2935 18.4355 50.3016 18.4087 50.2715 18.4087C50.2241 18.4087 50.1054 18.3433 50.0343 18.1715C49.4549 16.7739 46.0688 12.821 44.4597 11.6481C44.3013 11.5326 44.0961 11.355 43.9216 11.2041C43.8585 11.1495 43.7994 11.0984 43.7481 11.055C43.707 11.0203 43.6637 10.9829 43.6195 10.9447C43.4556 10.8031 43.2789 10.6504 43.155 10.5806C43.112 10.5564 43.0429 10.5202 42.9569 10.4753C42.7286 10.356 42.3813 10.1745 42.0876 9.98757C41.4204 9.56304 39.1528 8.32707 39.0038 8.32707C38.9698 8.32707 38.8178 8.28751 38.648 8.20846C38.262 8.02901 36.3921 7.39664 35.8014 7.2596ZM29.8655 8.93608C29.8597 8.73814 29.8545 8.56195 29.871 8.44568C29.9204 8.09627 29.9982 8.08985 30.3454 8.08985C31.1066 8.08985 31.3855 8.24775 31.5315 8.92011C31.604 9.25423 31.4393 9.84662 31.1757 9.98757C31.0669 10.0458 30.6483 10.1062 30.3454 10.1062H29.871V9.39454C29.8744 9.2401 29.8698 9.08217 29.8655 8.93608ZM27.8547 9.98757C27.3895 9.52278 27.4467 8.41955 27.9733 8.20846C28.751 7.89658 29.3966 8.41442 29.3966 9.27593C29.3966 10.0667 28.405 10.5375 27.8547 9.98757ZM31.8873 10.1062C31.8437 10.0284 31.9332 8.42876 32.0059 8.20846C32.0542 8.06241 32.4859 8.1773 32.4804 8.32707C32.4798 8.34343 32.4725 8.39248 32.4614 8.46711C32.4364 8.63466 32.3923 8.93112 32.3618 9.27593L32.3585 9.31299C32.2918 10.0655 32.2777 10.2248 32.1245 10.2248C32.0256 10.2248 31.9101 10.1465 31.8873 10.1062ZM33.192 9.86897C33.2555 9.49351 33.2755 9.3152 32.9548 8.56428C32.8583 8.33854 32.7935 8.25593 32.8124 8.22575C32.824 8.20716 32.8674 8.20846 32.9548 8.20846C33.1369 8.20846 33.2084 8.37336 33.3106 8.68289C33.3818 8.89839 33.5126 9.03871 33.5478 9.03871C33.573 9.03871 33.6652 8.9391 33.7723 8.82318C33.8148 8.77725 33.8597 8.72876 33.9037 8.68289C34.184 8.3904 34.4016 8.4104 34.4967 8.56428C34.5217 8.60471 34.3992 8.74427 34.201 8.9701C34.1817 8.99215 34.1616 9.01503 34.1409 9.03871C33.8478 9.37352 33.7149 9.70067 33.6664 9.98757C33.5935 10.4186 33.533 10.4843 33.3106 10.3434C33.2155 10.2833 33.1457 10.143 33.192 9.86897ZM25.6011 8.68289C25.6375 8.64645 25.9371 8.51473 26.1942 8.44568C26.8316 8.27435 26.9058 8.35427 26.9058 8.56428C26.9058 8.69885 26.74 8.73473 26.4322 8.80132L26.4314 8.8015L26.4154 8.80496C26.0915 8.87493 26.0485 8.88421 26.0756 9.03871C26.0792 9.05934 26.0823 9.07881 26.0853 9.09714C26.1203 9.31303 26.1296 9.37028 26.55 9.27593C26.6299 9.25799 26.6977 9.24032 26.7549 9.22542C26.9541 9.17353 27.0244 9.15524 27.0244 9.27593C27.0244 9.39788 26.9237 9.56975 26.6686 9.63175L26.6583 9.63425C26.2894 9.72376 26.1866 9.74872 26.3128 10.2248C26.3638 10.418 26.3211 10.5319 26.1942 10.5806C26.0413 10.6392 26.0362 10.6019 26.0105 10.4152C26 10.3385 25.986 10.2368 25.9569 10.1062C25.9352 10.0086 25.8952 9.8791 25.8521 9.7397C25.8049 9.58722 25.7541 9.42295 25.7197 9.27593C25.7012 9.19676 25.6808 9.11809 25.6619 9.0451C25.6136 8.85856 25.5749 8.70908 25.6011 8.68289ZM30.9385 9.63175C31.1073 9.46308 31.12 8.74579 30.9385 8.56428C30.7549 8.38091 30.3521 8.39032 30.3454 8.56428C30.3445 8.58741 30.3326 8.63118 30.3165 8.69013C30.2856 8.80299 30.2396 8.9715 30.2268 9.15732V9.75036H30.5826C30.7558 9.75036 30.8738 9.6964 30.9385 9.63175ZM28.9221 9.51314C29.0062 9.25866 29.0224 9.13012 28.9221 8.92011C28.8284 8.72381 28.6654 8.58554 28.4477 8.56428C28.0482 8.5252 27.9355 8.75521 27.9733 9.27593C27.9969 9.60241 28.0331 9.66249 28.2105 9.75036C28.5485 9.91786 28.7994 9.88478 28.9221 9.51314ZM24.7709 9.63175C24.5059 8.98486 24.4647 8.83941 24.6523 8.8015C24.7924 8.77319 24.9649 8.92609 25.2453 9.63175C25.2935 9.7531 25.3411 9.87044 25.3851 9.97883C25.5175 10.305 25.6171 10.5503 25.6011 10.5806C25.5115 10.7512 25.0427 10.6631 24.6523 10.3434C24.1233 9.91034 24.0079 9.92827 24.1778 10.3434C24.2159 10.4363 24.2496 10.5172 24.279 10.5875C24.4585 11.0172 24.4743 11.055 24.2964 11.055C24.2863 11.055 24.2766 11.0552 24.2672 11.0553C24.0832 11.0576 24.0329 11.0582 23.7034 10.1062C23.6665 9.99967 23.6334 9.9058 23.6042 9.82296C23.4099 9.2727 23.3874 9.20891 23.5848 9.15732C23.6982 9.12774 23.9379 9.30274 24.1778 9.51314C24.5564 9.84501 24.8895 10.066 24.8895 9.98757C24.8895 9.96534 24.8453 9.81346 24.7709 9.63175ZM34.6153 9.86897C34.6157 9.48107 34.9111 8.92414 35.2083 8.8015C35.3293 8.75154 35.5749 8.7774 35.6828 8.8015C35.7568 8.81797 35.8126 8.81151 35.8598 8.80606C35.8814 8.80357 35.9011 8.80128 35.92 8.8015C35.98 8.80228 36.2466 9.00971 36.3944 9.15732C36.5824 9.34526 36.5721 9.41932 36.5397 9.65137C36.5312 9.71165 36.5213 9.7826 36.513 9.86897C36.4514 10.5105 36.1268 10.8178 35.5642 10.8178C35.5374 10.8178 35.5126 10.818 35.4895 10.8181C35.2281 10.8197 35.1851 10.82 34.9711 10.5806C34.7814 10.3686 34.615 10.0805 34.6153 9.86897ZM36.0386 10.1062C36.2336 9.72935 36.2727 9.50984 36.0386 9.27593C35.71 8.94759 35.285 9.10633 35.0897 9.63175C34.9622 9.97479 35.0685 10.3239 35.3269 10.462C35.5994 10.6078 35.868 10.4358 36.0386 10.1062ZM22.0417 10.4651C22.0386 9.91254 22.038 9.82222 22.1615 9.75036C22.2559 9.69541 22.3804 9.63342 22.3987 9.63175C22.4894 9.62372 23.8619 11.1091 23.822 11.1737C23.7453 11.2978 23.3528 11.3228 23.229 11.1737C23.0382 10.9439 22.5645 11.1331 22.3987 11.5295C22.3229 11.7108 22.2416 11.8853 22.1615 11.8853C22.0429 11.8853 22.0429 11.6623 22.0429 10.8403V10.8178C22.0429 10.6829 22.0422 10.5663 22.0417 10.4651ZM37.8177 11.5295C37.4288 11.2528 37.345 11.075 37.8177 9.86897C37.8871 9.69177 38.0355 9.63175 38.1735 9.63175C38.2494 9.63175 38.2984 9.62361 38.3185 9.64398C38.3601 9.68615 38.2781 9.85048 38.0549 10.462C37.8169 11.1141 37.914 11.4109 38.2921 11.4109C38.4885 11.4109 38.5123 11.3493 38.6453 11.0054C38.6778 10.9213 38.7169 10.8203 38.7666 10.6992C39.0643 9.97367 39.1462 9.9712 39.3596 10.1062C39.473 10.178 39.4634 10.2617 39.241 10.8178C39.2217 10.866 39.2023 10.9147 39.1831 10.963C39.0551 11.2842 38.9335 11.5896 38.8852 11.6481C38.7288 11.8375 38.1339 11.7544 37.8177 11.5295ZM22.6359 10.8178C22.8304 10.7138 22.8515 10.6489 22.6359 10.462C22.499 10.3433 22.4392 10.286 22.4138 10.2986C22.3871 10.3118 22.3987 10.4025 22.3987 10.5806C22.3987 10.6256 22.3978 10.6656 22.3971 10.7007C22.3922 10.9197 22.3916 10.9484 22.6359 10.8178ZM19.5521 11.055C19.5352 11.0085 19.767 10.8364 20.0266 10.6992C20.5953 10.3988 20.8828 10.4346 21.2126 10.8178C21.45 11.0934 21.63 11.5624 21.5685 11.8853C21.5339 12.067 20.7103 12.7155 20.501 12.7155C20.4143 12.7155 19.72 11.5133 19.5521 11.055ZM39.241 12.2411C39.1333 12.1729 39.2157 11.9639 39.5968 11.2923C39.6949 11.1193 39.7821 10.9598 39.8542 10.8278C39.9755 10.6059 40.0543 10.4617 40.0712 10.462C40.3231 10.4664 40.4826 10.7319 40.5457 11.8853C40.5531 12.0213 40.5747 12.005 40.7829 11.6481C40.9479 11.3652 41.2061 11.055 41.2573 11.055C41.4853 11.055 41.3404 11.4325 41.0201 12.0039C40.9263 12.1712 40.8496 12.3119 40.7854 12.4295C40.5115 12.9315 40.4667 13.0135 40.3085 12.9528C40.1774 12.9025 40.0765 12.6699 40.0712 12.2411C40.0604 11.3712 39.9959 11.321 39.7154 11.8853C39.4672 12.3848 39.4523 12.3753 39.2567 12.2511C39.2516 12.2478 39.2463 12.2445 39.241 12.2411ZM21.2126 11.8853C21.2781 11.6792 21.0749 11.273 20.8568 11.055C20.6581 10.8565 20.5117 10.8739 20.2638 11.055C20.0925 11.1802 20.1147 11.2249 20.3229 11.6461C20.3413 11.6832 20.3611 11.7233 20.3824 11.7667C20.6144 12.2393 20.6235 12.2349 20.7978 12.1504C20.8156 12.1418 20.8352 12.1324 20.8568 12.1225C20.8628 12.1198 20.8688 12.1171 20.875 12.1143C21.0081 12.0538 21.1846 11.9737 21.2126 11.8853ZM41.6131 12.1225C41.7542 11.9609 41.8503 11.807 41.8504 11.7667C41.8506 11.6283 42.1481 11.7343 42.2062 11.8853C42.2416 11.9776 42.2057 12.1964 41.969 12.4783C41.9008 12.5596 41.8255 12.6462 41.7516 12.7314C41.5944 12.9124 41.4428 13.087 41.3759 13.19C41.2204 13.4292 41.1424 13.4308 41.0201 13.3086C40.9067 13.1951 40.9243 13.1677 41.0956 12.9014C41.109 12.8805 41.1234 12.8581 41.1387 12.8342C41.1692 12.7864 41.2032 12.7317 41.2392 12.6739C41.3605 12.4787 41.5044 12.2472 41.6131 12.1225ZM18.3524 12.6974C18.1166 12.3835 17.8644 12.0478 17.8916 12.0039C18.0091 11.814 18.3007 11.9494 18.7219 12.4783C19.1826 13.0571 19.3043 13.4846 19.0777 13.783C18.8934 14.0257 18.3769 14.1905 18.1288 14.1388C17.8453 14.08 16.9869 13.0282 17.0614 12.8342C17.1595 12.5786 17.3418 12.644 17.773 13.19C18.1911 13.7192 18.3772 13.8903 18.6033 13.6644C18.7856 13.4822 18.8334 13.3375 18.3661 12.7155L18.3524 12.6974ZM41.969 14.0202C41.8849 13.9189 41.9325 13.6696 42.2062 12.9528C42.5214 12.1273 42.6455 12.0403 42.7992 12.1225C42.9277 12.1912 42.9208 12.2089 42.8064 12.502C42.7733 12.5869 42.7311 12.695 42.6806 12.8342C42.5499 13.1941 42.5385 13.5222 42.562 13.5458C42.5846 13.5683 42.8312 13.4048 43.1168 13.2154L43.155 13.19C43.2417 13.1325 43.321 13.0762 43.392 13.0259C43.568 12.901 43.6924 12.8128 43.7481 12.8342C44.0621 12.9545 43.9682 13.2274 43.0364 13.783C42.3847 14.1716 42.1386 14.2244 41.969 14.0202ZM16.5869 14.0202C16.2347 13.6977 16.0906 13.449 16.2311 13.3086C16.2361 13.3036 16.2407 13.2988 16.2452 13.2941C16.3271 13.2085 16.3421 13.1927 17.0614 13.9016C17.1497 13.9886 17.2277 14.0646 17.2961 14.1313C17.7319 14.5559 17.7818 14.6046 17.6544 14.7319C17.507 14.8792 17.4054 14.8866 16.8242 14.7319C16.4781 14.6398 16.1553 14.6133 16.1125 14.6133C16.0697 14.6133 16.2352 14.8503 16.4683 15.0877C16.86 15.4864 16.9904 15.6861 16.7056 15.6807C16.6413 15.6796 16.2201 15.4315 15.8753 15.0877C15.447 14.6606 15.3598 14.3642 15.4009 14.2574C15.4747 14.0652 15.6626 14.0748 16.3497 14.2574C16.6438 14.3356 16.9135 14.4053 16.9428 14.3761C16.9644 14.3546 16.8707 14.272 16.7391 14.1562C16.6921 14.1147 16.6402 14.069 16.5869 14.0202ZM43.0364 14.7319C43.0363 14.6759 43.2924 14.3553 43.6295 14.0202C43.9666 13.685 44.2851 13.4287 44.3411 13.4272C44.397 13.4256 44.669 13.6325 44.9342 13.9016C45.3109 14.2838 45.3824 14.4023 45.29 14.4947C45.1974 14.5871 45.1065 14.5412 44.8155 14.2574C44.7796 14.2224 44.7477 14.1908 44.7191 14.1626C44.4898 13.936 44.4756 13.922 44.3411 14.0202C44.1798 14.1381 44.1439 14.1861 44.4597 14.4947C44.6468 14.6774 44.8428 14.8981 44.8155 14.9691C44.7389 15.1684 44.5706 15.1007 44.2225 14.7319L43.8667 14.3761L43.7481 14.6133C43.7352 14.6271 43.7229 14.64 43.7112 14.6523C43.5542 14.8171 43.5207 14.8523 43.8667 15.2063C44.1594 15.5058 44.1964 15.5883 44.1039 15.6807C44.0115 15.7731 43.8934 15.7014 43.5109 15.3249C43.2416 15.0599 43.0365 14.7877 43.0364 14.7319ZM28.6849 15.6807C28.5082 15.2579 28.5872 14.8766 28.9221 14.6133C29.219 14.3799 29.6627 14.4547 29.871 14.7319C30.1656 15.124 30.1697 16.2926 29.871 16.7482C29.5694 17.2081 28.873 17.1439 28.6849 16.6296C28.6175 16.4452 28.6307 16.3924 28.8035 16.3924C28.9171 16.3924 29.0892 16.4167 29.1593 16.511C29.3453 16.7608 29.5932 16.5683 29.6338 16.1552C29.6578 15.911 29.6526 15.9156 29.5675 15.9913C29.5526 16.0045 29.5352 16.0199 29.5152 16.0366C29.2624 16.2463 28.8461 16.066 28.6849 15.6807ZM27.143 15.2063C26.8201 15.379 26.9348 14.929 27.2616 14.7319C27.8474 14.3788 27.8547 14.4478 27.8547 15.7993C27.8547 16.9584 27.803 16.9854 27.6175 16.9854C27.4812 16.9854 27.4823 16.9387 27.4916 16.5543C27.4948 16.4242 27.4988 16.2553 27.4988 16.0366C27.4988 15.5248 27.4107 15.0877 27.3802 15.0877C27.3578 15.0877 27.2962 15.1219 27.2236 15.1622C27.1977 15.1765 27.1704 15.1917 27.143 15.2063ZM30.7405 14.8413C30.5478 14.8347 30.4831 14.8324 30.464 14.7319C30.4353 14.5808 30.5215 14.4947 31.1757 14.4947C31.5419 14.4947 31.7444 14.4921 31.8239 14.5897C31.9374 14.729 31.8004 15.0723 31.5315 15.918C31.2321 16.8592 31.1765 16.957 30.9385 16.9854H30.7012L31.0571 16.0366C31.2463 15.5077 31.4129 15.0065 31.4129 14.9691C31.4129 14.9316 31.1941 14.8668 30.9385 14.8505C30.8608 14.8455 30.7955 14.8432 30.7405 14.8413ZM32.3612 15.009C32.359 14.8896 32.3572 14.7896 32.3618 14.7319C32.378 14.5274 32.4757 14.4947 33.0734 14.4947C33.6342 14.4947 33.6949 14.5827 33.6664 14.7319C33.6474 14.8324 33.5827 14.8347 33.3899 14.8413C33.335 14.8432 33.2697 14.8455 33.192 14.8505C32.7523 14.8787 32.7176 14.9399 32.7176 15.2063C32.7176 15.2333 32.7173 15.258 32.717 15.2806C32.7144 15.4796 32.7139 15.5126 32.9548 15.4435L32.969 15.4394C33.162 15.384 33.2913 15.3469 33.4292 15.4435C33.6543 15.601 33.7592 16.1416 33.6664 16.511C33.5912 16.81 33.1564 17.0657 32.8362 16.9854C32.576 16.9202 32.2678 16.5441 32.3618 16.3924C32.4344 16.2749 32.6959 16.3243 32.8362 16.511C32.9653 16.6828 33.2465 16.6373 33.3106 16.3924C33.4276 15.9455 33.0686 15.4818 32.8362 15.7993C32.7749 15.8831 32.5875 16.0366 32.4804 16.0366C32.3357 16.0366 32.3402 15.9377 32.3539 15.6361C32.3565 15.5793 32.3594 15.5154 32.3618 15.4435C32.3665 15.2954 32.3637 15.1404 32.3612 15.009ZM29.1593 15.6807C29.4968 15.8101 29.789 15.2427 29.5152 14.9691C29.5025 14.9564 29.4907 14.9444 29.4796 14.9329C29.3804 14.8311 29.3316 14.781 29.1593 14.8505C28.9819 14.9221 28.9772 15.611 29.1593 15.6807ZM44.4597 16.1552C44.325 16.0435 44.3456 15.9801 44.9342 15.4435C45.3036 15.1067 45.6811 14.8526 45.7644 14.8505C45.9439 14.846 46.7133 15.6866 46.7133 15.918C46.7133 16.208 46.306 16.4532 46.0016 16.3924C45.7358 16.3392 45.7104 16.3978 45.6458 16.8668C45.5755 17.3776 45.4919 17.4658 45.29 17.2226C45.196 17.1095 45.2112 16.9037 45.29 16.511C45.3466 16.2287 45.3355 15.965 45.29 15.918C45.2434 15.8698 45.1059 15.9143 44.9342 16.0366C44.6786 16.2185 44.5884 16.2619 44.4597 16.1552ZM14.5383 15.934C14.3247 15.4563 14.2551 15.3006 14.3334 15.2063C14.3713 15.1607 14.3988 15.1268 14.4343 15.1077C14.5435 15.049 14.7279 15.1304 15.5195 15.4435C16.1876 15.7077 16.3732 15.9242 16.3497 16.0366C16.3272 16.1446 16.2183 16.173 15.9939 16.1552C15.757 16.1362 15.7015 16.1961 15.5244 16.3871L15.5195 16.3924C15.4546 16.4623 15.3982 16.5169 15.3521 16.5615C15.2037 16.7052 15.1615 16.7461 15.2823 16.8668C15.3681 16.9526 15.3774 16.9895 15.2823 17.104C15.2613 17.1292 15.246 17.15 15.2337 17.1668C15.2053 17.2054 15.1926 17.2226 15.1637 17.2226C15.1223 17.2226 14.9151 16.7883 14.6892 16.2738C14.6328 16.1452 14.5825 16.0327 14.5383 15.934ZM45.7644 15.7993C46.1747 16.2357 46.4617 16.0494 46.1202 15.5621C45.9041 15.2536 45.8199 15.2339 45.6458 15.4435C45.5444 15.5656 45.5745 15.5975 45.7544 15.7887L45.7644 15.7993ZM15.2473 15.9571C15.2677 15.9436 15.2819 15.9343 15.2823 15.918C15.283 15.8828 15.2068 15.7371 15.0451 15.6807C14.7027 15.5615 14.6598 15.6985 14.9264 16.0366C15.063 16.2096 15.0795 16.1806 15.129 16.094C15.1388 16.0768 15.15 16.0572 15.1637 16.0366C15.1923 15.9934 15.2239 15.9725 15.2473 15.9571ZM13.2065 16.7065C13.2243 16.6848 13.2446 16.66 13.2659 16.6296C13.2829 16.6054 13.2992 16.5805 13.315 16.5562C13.3805 16.456 13.4383 16.3675 13.5032 16.3924C13.7159 16.474 15.0389 17.4904 15.0451 17.5785C15.061 17.8044 14.6597 17.7793 14.2148 17.4599C13.9586 17.276 13.8256 17.1719 13.8138 17.1841C13.8009 17.1976 13.9354 17.3523 14.2148 17.6971C14.5189 18.0722 14.5835 18.1587 14.452 18.2901C14.3207 18.4214 14.2561 18.3937 13.7404 18.1715L13.1473 17.9343L13.6218 18.4087L13.6368 18.4222C13.9635 18.7143 14.0409 18.7835 13.9776 18.8831C13.9074 18.9935 13.661 18.9823 13.0287 18.5273C12.5925 18.2136 12.3171 17.8432 12.3171 17.8157C12.3171 17.7031 12.6645 17.4599 12.7915 17.4599C12.8364 17.4599 12.9171 17.5059 13.0223 17.566C13.0935 17.6066 13.1759 17.6536 13.2659 17.6971C13.8091 17.9593 13.8666 17.899 13.6218 17.5785C13.0767 16.8648 13.0854 16.8542 13.2065 16.7065ZM46.7892 16.7905C46.8027 16.7771 46.8169 16.7631 46.8319 16.7482L46.833 16.747C47.0583 16.522 47.099 16.4813 47.4249 16.6296C47.8324 16.8152 48.07 17.5758 47.7807 17.8157C47.6257 17.9442 47.4249 17.8466 47.4249 17.4599C47.4249 17.224 47.1803 16.8743 47.0691 16.9854C47.0395 17.015 47.0931 17.2184 47.1518 17.4411C47.1638 17.4865 47.176 17.5327 47.1877 17.5785C47.1932 17.5999 47.1985 17.6204 47.2036 17.6401C47.2999 18.0137 47.3194 18.0893 47.1877 18.2901C46.8982 18.7315 46.242 18.5092 46.0016 17.9343C45.9684 17.855 45.9362 17.7981 45.9099 17.7517C45.8501 17.6463 45.8212 17.5954 45.883 17.4599C46.0095 17.1824 46.0739 17.0578 46.2388 17.2226C46.3138 17.2976 46.2998 17.4645 46.2388 17.5785C46.1188 17.8026 46.4886 18.2576 46.7133 18.1715C46.8513 18.1185 46.8377 17.9914 46.7133 17.5785C46.5475 17.0282 46.5912 16.9852 46.7892 16.7905ZM46.8319 19.239C46.7115 19.1188 46.7644 18.9593 47.4249 18.5273C48.2256 18.0037 48.382 17.993 48.4924 18.1715C48.5913 18.3315 48.1316 18.6747 47.3063 19.1204C47.2414 19.1554 47.1883 19.186 47.144 19.2115C46.964 19.315 46.9284 19.3355 46.8319 19.239ZM11.4868 19.9506C11.2559 19.7198 11.3977 19.1664 11.724 18.8831C11.9904 18.6519 12.2243 18.6145 12.3171 18.7645C12.4137 18.9208 12.2751 19.1204 12.0799 19.1204C11.8655 19.1204 11.7529 19.3614 11.8426 19.5948C11.8923 19.7243 11.99 19.6529 12.3171 19.3576C12.629 19.0761 12.7858 18.978 13.0287 19.0017C13.5763 19.0551 13.7014 19.6705 13.2659 20.1878C13.0271 20.4713 12.7422 20.6617 12.5543 20.5436C12.3615 20.4225 12.5293 20.0692 12.7915 20.0692C13.0578 20.0692 13.2183 19.6656 13.0287 19.4762C12.9467 19.3942 12.8302 19.4441 12.5543 19.7134C12.1508 20.1071 11.7434 20.207 11.4868 19.9506ZM48.3761 19.6156C48.8614 19.4195 48.9013 19.4034 48.8482 19.1204C48.8169 18.9538 48.7768 18.9039 48.7871 18.8891C48.7923 18.8817 48.8102 18.8831 48.8482 18.8831C48.9797 18.8831 49.5598 19.9138 49.5598 20.1878C49.5598 20.3674 49.2669 20.267 49.204 20.0692C49.1369 19.8581 49.1019 19.8733 48.662 20.0642C48.5807 20.0995 48.4855 20.1408 48.3738 20.1878C47.7468 20.4515 47.4249 20.418 47.4249 20.1878C47.4249 20.108 47.727 19.8832 48.1366 19.7134C48.2264 19.6761 48.3059 19.644 48.3761 19.6156ZM30.2268 20.8995C31.2813 20.7212 31.9099 20.5553 32.4804 20.3064C33.0803 20.0446 33.3459 19.9516 33.785 19.9506C34.3324 19.9495 34.4968 20.087 35.2003 20.6751C35.2407 20.7088 35.2828 20.7441 35.3269 20.7809C35.4569 20.8892 35.5587 20.9629 35.7062 21.0696C35.8401 21.1665 36.0115 21.2906 36.2758 21.4925C37.1227 22.1398 37.5723 22.4965 38.0476 22.8737C38.3283 23.0965 38.618 23.3264 39.0038 23.6274C39.7402 24.2021 40.2561 24.4573 40.4271 24.4577C41.0397 24.459 41.3544 24.6497 42.0876 25.4066C42.2776 25.6027 42.5461 25.8945 42.829 26.2018C43.1479 26.5483 43.4849 26.9145 43.7481 27.1857C44.5534 28.0155 44.6269 28.1206 44.5783 28.3717C44.5565 28.4846 44.5665 28.5878 44.5735 28.6604C44.5761 28.6874 44.5783 28.7101 44.5783 28.7276C44.5783 28.7926 44.2153 28.8955 43.8667 28.9648C42.9173 29.1533 42.7087 29.3775 42.562 30.0323C42.4581 30.4965 42.3857 30.563 42.0876 30.7439C41.907 30.8534 41.7769 31.0363 41.7385 31.0902C41.7358 31.0941 41.7335 31.0973 41.7318 31.0997C41.716 31.1214 41.6179 31.1774 41.4795 31.2564C41.3812 31.3125 41.2626 31.3803 41.1387 31.4555C40.4254 31.889 38.4656 33.282 37.9363 33.7091L37.4619 34.0649L37.6991 34.3021C37.7953 34.4539 38.4815 35.1921 39.241 35.9626C40.0003 36.733 40.6895 37.5602 40.7829 37.7417L40.9015 38.0976L40.5457 38.4534C39.9746 39.0377 39.8092 39.0419 39.3596 38.8092C39.1497 38.7007 38.8744 38.5387 38.7666 38.4534C38.422 38.1808 37.3228 37.5045 37.2247 37.5045C37.1919 37.5045 37.2004 37.4788 37.2112 37.4463C37.2175 37.4272 37.2247 37.4058 37.2247 37.3859C37.2247 37.3528 37.2028 37.3604 37.1718 37.3712C37.1524 37.3779 37.1295 37.3859 37.1061 37.3859C37.0523 37.3859 36.6019 37.1028 36.1154 36.7971C36.0506 36.7563 35.9852 36.7152 35.92 36.6743C35.7909 36.5933 35.6653 36.5134 35.5469 36.438C35.1561 36.1894 34.8426 35.9898 34.7339 35.9626C34.6949 35.9528 34.6619 35.944 34.6285 35.9419C34.4235 35.929 34.2026 36.1682 32.4804 37.979C30.0159 40.5702 29.119 41.4186 29.0407 41.4186C28.9656 41.4186 27.711 40.2528 25.7197 38.2162C25.1966 37.6812 25.2045 37.6142 25.2427 37.2897C25.2435 37.2824 25.2444 37.2749 25.2453 37.2673C25.2813 36.9593 25.2412 36.8008 25.0081 36.5557C24.6013 36.1281 24.2096 35.9127 23.4662 35.844C22.8528 35.7874 22.8425 35.7778 22.3317 35.2993C22.3151 35.2837 22.2979 35.2676 22.2801 35.251C20.244 33.3462 19.8741 33.1161 19.7894 33.1161C19.7536 33.1161 19.7048 32.8219 19.6707 32.4044V31.5742L19.0777 31.0997C17.1083 29.2647 16.519 28.7274 16.3497 28.609C16.0938 28.4298 16.0953 28.3437 16.4683 27.8973C16.5864 27.7561 16.6916 27.6289 16.7865 27.5143C17.436 26.7294 17.596 26.5361 18.0102 26.474C18.4911 26.402 18.8599 26.2428 19.5521 25.6438C20.0024 25.2541 22.4749 24.0321 23.1104 23.8647C23.326 23.8079 23.9945 23.7477 24.5337 23.7461H25.4825L26.55 22.6786C27.847 21.4233 28.167 21.2476 30.2268 20.8995ZM11.115 20.5371C10.9837 20.4837 10.9293 20.4616 11.0124 20.3064C11.1332 20.081 11.185 20.0938 12.0799 20.6623C12.5201 20.9419 12.5543 20.9948 12.5543 21.2553C12.5543 21.6627 12.2599 22.1292 11.9613 22.2042C11.787 22.2478 11.5266 22.1235 11.0124 21.8483C10.8126 21.7414 10.6318 21.6583 10.5024 21.5988C10.3774 21.5414 10.3004 21.506 10.3007 21.4925C10.3016 21.4652 10.3692 21.3345 10.4194 21.2553C10.4887 21.1457 10.6009 21.2063 10.9936 21.4185C11.036 21.4414 11.0817 21.4661 11.131 21.4925C11.8341 21.8696 12.155 21.8672 12.1985 21.4925C12.2235 21.277 12.119 21.1357 11.724 20.8995C11.6276 20.8418 11.5342 20.7832 11.4499 20.7303C11.3078 20.6413 11.1917 20.5685 11.131 20.5436C11.1255 20.5414 11.1202 20.5392 11.115 20.5371ZM49.204 21.0181C49.3029 20.8649 49.454 20.667 49.5598 20.5436L49.7971 20.3064V20.5436C49.8556 20.7017 49.8619 20.7778 49.6785 21.0181C49.5428 21.1959 49.4412 21.3467 49.4412 21.3739C49.4412 21.4011 49.6778 21.4569 49.9157 21.4925C50.2247 21.5387 50.3553 21.5967 50.3901 21.7297C50.4471 21.9475 50.1258 22.0061 49.4412 21.8483C49.1295 21.7764 48.9663 21.7499 48.7296 21.8483C48.0643 22.125 47.9505 21.7845 48.611 21.4925C48.849 21.3873 49.1051 21.1713 49.204 21.0181ZM38.1735 23.7461C37.4456 23.2 36.2702 22.2535 35.5642 21.6111C34.3095 20.4697 34.2551 20.4406 33.785 20.425C33.3842 20.4117 33.1646 20.4919 32.3618 20.8995C31.6406 21.2655 31.2278 21.4207 30.7012 21.4925C28.9977 21.7248 27.8922 22.1209 27.143 22.7972C26.7567 23.1459 26.1942 24.0237 26.1942 24.3391C26.1942 24.4325 26.3895 24.6726 26.6686 24.9321C27.5054 25.7104 28.0919 26.3567 28.0919 26.474C28.0919 26.5349 28.0524 26.6066 27.9733 26.7112C27.8367 26.8917 27.6923 26.8213 26.55 25.6438C25.2108 24.2635 25.1002 24.2205 23.822 24.2205C22.8865 24.2205 22.1663 24.5807 20.7382 25.6438C20.253 26.0049 19.6007 26.4541 19.1963 26.7112C18.7919 26.9685 18.409 27.2665 18.3661 27.3043C18.3232 27.3421 19.0671 27.878 20.0266 28.4904C20.2795 28.6517 20.5258 28.8082 20.7638 28.9594C22.0351 29.7668 23.0681 30.4229 23.5848 30.8625C23.9462 31.17 25.4521 32.983 26.4314 34.1835C26.7175 34.5342 26.9499 34.5881 27.0244 34.4207C27.0488 34.3657 27.3226 34.1676 27.9954 33.6809C28.1298 33.5836 28.2802 33.4748 28.4477 33.3533C29.3865 32.6723 30.7579 32.0331 32.0059 31.6928C32.4045 31.584 32.6978 31.4753 32.7176 31.4555C32.7375 31.4358 32.5403 31.1387 32.2431 30.8625C32.0636 30.6954 31.8844 30.5669 31.7707 30.4853C31.6964 30.432 31.6501 30.3988 31.6501 30.3881C31.6501 30.361 31.8338 30.2398 32.0059 30.1509C32.315 29.9912 32.3625 29.9914 32.599 30.2695C33.2327 31.015 33.5467 31.2998 33.785 31.4555L34.0223 31.6928L34.3781 31.0997C34.5854 30.7975 35.0581 30.1742 35.4455 29.6764C36.1385 28.786 36.2296 28.7226 37.2247 28.2531C37.4544 28.1447 37.7878 27.9962 38.1627 27.8291C38.6954 27.5918 39.3119 27.317 39.834 27.0671L41.4945 26.2368L41.1387 25.9996C41.0553 25.9302 40.9835 25.8701 40.9196 25.8166C40.5921 25.5423 40.4729 25.4424 40.0712 25.1693C39.9119 25.0609 39.7423 24.9666 39.625 24.9015C39.5448 24.8569 39.4892 24.826 39.4782 24.8135C39.4512 24.7828 38.9014 24.2921 38.1735 23.7461ZM34.9711 23.3902C34.1964 22.6841 34.1409 22.6103 34.1409 22.2042C34.1409 21.8584 34.2313 21.7297 34.3781 21.7297C34.4482 21.7297 34.5305 21.834 34.6201 21.9475C34.6569 21.9942 34.695 22.0424 34.7339 22.0855C34.8195 22.1803 34.9939 22.3238 35.1991 22.4925C35.3145 22.5875 35.4397 22.6905 35.5642 22.7972C37.5753 24.5214 38.528 25.5254 38.5293 25.9996C38.5303 26.3161 38.2253 26.3673 37.8177 25.9996C37.7299 25.9204 37.6219 25.8078 37.5067 25.6877C37.3761 25.5516 37.2363 25.4057 37.1061 25.288C36.9306 25.1292 36.6429 24.8796 36.4055 24.6736C36.3115 24.592 36.2254 24.5173 36.1572 24.4577C35.917 24.2478 35.416 23.7958 34.9711 23.3902ZM31.6489 23.5162L31.6501 23.5088L31.7687 23.153H32.2431C32.535 23.153 32.7176 23.2245 32.7176 23.2716C32.7176 23.2831 32.7196 23.3001 32.7221 23.3217C32.73 23.3887 32.7431 23.5 32.7176 23.6274C32.6698 23.8664 32.6335 23.8662 32.4312 23.8648C32.41 23.8647 32.3869 23.8645 32.3618 23.8647C31.7915 23.8671 31.5637 24.0076 31.5315 24.3391C31.5286 24.3689 31.5265 24.396 31.5246 24.4207C31.5075 24.6433 31.5055 24.6692 31.0571 24.6949H30.464V24.3391C30.464 24.0495 30.5133 24.0441 30.8702 24.0048C30.925 23.9988 30.9869 23.992 31.0571 23.9833C31.581 23.9179 31.5854 23.8918 31.6489 23.5162ZM33.4292 26.1182C33.2804 25.6219 33.4385 24.8812 33.6664 24.8135C33.9834 24.7195 34.7862 24.7388 35.2083 24.9321C35.7678 25.1883 36.1285 25.6084 36.3944 26.1182C36.5018 26.3241 36.545 26.4061 36.5397 26.4847C36.5344 26.5632 36.4808 26.6383 36.3944 26.8298C36.1401 27.3931 35.6324 27.8938 34.6153 28.3717C33.1257 29.0717 32.2311 29.4017 31.6501 29.3206C31.4522 29.293 31.299 29.2666 31.1795 29.246C30.7629 29.1742 30.7571 29.1732 30.7012 29.4392C30.5633 30.0957 29.9681 30.6992 28.9221 31.0997C28.1787 31.3845 27.9811 31.4193 27.8547 31.3369C27.6967 31.2341 27.4126 30.4323 27.4988 30.3881C27.5389 30.3676 27.7306 30.2822 27.9733 30.2695C28.9077 30.2205 29.715 29.8386 29.9896 29.3206L29.993 29.3142C30.0886 29.1341 30.1271 29.0615 29.871 28.8462C29.7073 28.7086 29.3782 28.5559 29.1593 28.4904C28.7206 28.359 28.594 28.2592 28.6849 27.8973C28.7399 27.6782 28.7974 27.6836 29.0407 27.7787C31.6151 28.7851 32.4323 28.7374 34.2595 27.6601C35.3525 27.0158 35.92 26.4707 35.92 26.1182C35.92 25.9271 35.4265 25.8217 35.3269 25.9996C35.2782 26.0866 35.1285 26.3097 34.9711 26.474C34.4524 27.0165 33.6511 26.858 33.4292 26.1182ZM34.1409 26.1182C34.3046 26.1182 34.6153 25.8704 34.6153 25.7624C34.6153 25.6288 34.2597 25.5251 34.1409 25.6438C34.0678 25.7167 34.0715 26.1182 34.1409 26.1182ZM9.85258 26.3751C9.87988 26.2924 9.90891 26.2045 9.94493 26.1182C10.0405 25.8894 10.1525 25.644 10.1821 25.6438C10.2117 25.6436 10.3551 25.8245 10.4194 25.9996C10.4355 26.0435 10.4515 26.0915 10.4683 26.1416C10.5184 26.2912 10.5746 26.4592 10.6566 26.5926L10.8938 26.9485L11.2496 26.7112C11.7891 26.3274 12.3454 26.6465 12.5543 27.3043C12.6228 27.52 12.3715 28.0108 12.1985 28.0159C11.9952 28.0219 12.5812 28.5557 13.0287 28.7276L13.5032 28.8462L12.9101 29.0834C12.1568 29.4525 12.0812 29.5271 12.3171 29.9136C12.5813 30.3467 12.6234 30.4987 12.3171 30.8625C12.0118 31.2251 11.6687 31.2793 11.2496 30.9811L10.8938 30.7439L10.6566 31.0997C10.5746 31.2331 10.5184 31.4012 10.4683 31.5507C10.4515 31.6008 10.4355 31.6488 10.4194 31.6928C10.3551 31.8679 10.2117 32.0495 10.1821 32.0486C10.1664 32.0481 10.1363 31.9635 10.0925 31.8403C10.0538 31.7317 10.0045 31.5931 9.94493 31.4555C9.63632 30.7432 9.51306 30.7207 9.23328 30.9811C8.47981 31.6825 7.47313 30.5631 8.16581 29.795C8.36109 29.5786 8.30634 29.4429 7.57277 29.0834L6.97974 28.8462L7.57277 28.609C8.26213 28.3294 8.38226 28.1362 8.16581 27.8973C7.86672 27.5671 7.87593 27.1741 8.16581 26.8298C8.48186 26.4546 8.87635 26.4019 9.23328 26.7112L9.47049 26.9485L9.70771 26.7112C9.76711 26.6341 9.8075 26.5117 9.85258 26.3751ZM49.204 26.8298C49.3 26.8298 49.7232 26.1748 49.7971 25.881C49.8303 25.7487 49.8812 25.6425 49.9157 25.6438C49.9503 25.6451 50.1192 25.9149 50.2715 26.2368C50.5539 26.8335 50.6472 26.973 50.8645 26.7112C50.9317 26.6304 51.1468 26.5926 51.339 26.5926C52.0444 26.5926 52.376 27.3334 51.932 27.8973L51.8134 28.1345L52.1692 28.3717C52.3998 28.504 52.7485 28.6879 52.8809 28.7276C52.9582 28.7508 52.9997 28.7559 53.0001 28.7632C53.0008 28.777 52.8542 28.7985 52.525 28.9648C51.8029 29.3296 51.6792 29.5665 51.932 29.795C52.1523 29.9943 52.2378 30.5002 52.0506 30.7439C51.7404 31.1476 51.1972 31.1949 50.8645 30.8625C50.653 30.6511 50.5912 30.6615 50.2715 31.3369L49.9157 31.93L49.6785 31.4555C49.5642 31.1972 49.4064 30.955 49.3226 30.8625C49.2569 30.7899 49.238 30.7465 49.2087 30.7378C49.1742 30.7275 49.1251 30.766 48.9668 30.8625C48.5433 31.1204 48.3532 31.0789 48.018 30.7439C47.6771 30.4033 47.6104 30.162 47.8993 29.795C48.1429 29.4857 48.1352 29.4774 47.3063 29.0834L46.7133 28.8462L47.1877 28.609C47.2389 28.5868 47.2892 28.5657 47.3366 28.5458C47.5199 28.4688 47.6621 28.409 47.6621 28.3717C47.6621 28.3247 47.703 28.2531 47.7807 28.2531C48.0282 28.2531 48.1124 28.0053 47.8993 27.7787C47.2802 27.1202 48.2377 26.1602 48.9668 26.7112C49.0715 26.7903 49.1658 26.8298 49.204 26.8298ZM10.6566 27.1857L10.538 26.7112C10.4186 26.4592 10.2144 26.2393 10.1821 26.2368C10.1505 26.2344 10.0478 26.4727 9.95076 26.6977L9.94493 26.7112C9.84631 26.9402 9.72634 27.155 9.70771 27.1857C9.66105 27.2629 10.0666 27.6601 10.1821 27.6601C10.2338 27.6601 10.4227 27.5455 10.538 27.4229L10.6566 27.1857ZM49.7838 26.4841C49.7528 26.5522 49.7175 26.6299 49.6785 26.7112L49.4412 27.1857L49.6785 27.4229L49.9157 27.6601L50.1529 27.4229L50.3901 27.1857L50.1529 26.7112C50.1105 26.624 50.0725 26.5399 50.0398 26.4673C49.9782 26.3308 49.9351 26.2352 49.9157 26.2368C49.8955 26.2385 49.8494 26.3398 49.7838 26.4841ZM21.094 27.4229C21.0978 27.0497 21.2995 26.7947 21.6871 26.5926C22.0314 26.4133 22.242 26.436 22.3987 26.5926C22.5992 26.7929 22.5246 27.0656 22.2801 27.0671C21.9611 27.0689 21.5685 27.2091 21.5685 27.3043C21.5685 27.3494 21.7348 27.3873 21.9243 27.4229C22.2348 27.4811 22.6192 27.3283 23.229 27.0671C23.3651 27.0088 23.4662 27.1176 23.4662 27.3043C23.4662 27.4824 23.2351 27.6412 22.6018 28.0764C22.5744 28.0953 22.5463 28.1146 22.5173 28.1345C21.7902 28.6346 21.6871 28.6461 21.6871 28.4904C21.6871 28.3863 21.7518 28.2864 21.8057 28.2531C22.0151 28.1238 21.8247 28.0096 21.4499 27.8973C21.097 27.7917 21.0912 27.7058 21.094 27.4229ZM9.35189 27.1857L9.11467 26.9485C8.81215 26.6878 8.69457 26.7443 8.40303 26.9485C8.12599 27.1422 8.1357 27.537 8.40303 27.7787C8.58525 27.9434 8.6072 27.922 8.92723 27.6088C8.94878 27.5877 8.97168 27.5653 8.99606 27.5415L9.35189 27.1857ZM12.0799 27.7787C12.3837 27.504 12.3121 27.1298 11.9613 26.9485C11.7718 26.8506 11.691 26.8045 11.6153 26.8118C11.5507 26.8181 11.4898 26.8633 11.3682 26.9485C11.0706 27.1567 11.0887 27.2746 11.4868 27.6601C11.82 27.9828 11.8862 27.9539 12.0799 27.7787ZM48.8919 26.9956C48.8782 26.981 48.8636 26.9654 48.8482 26.9485C48.347 26.395 47.6487 27.0946 48.1366 27.6601L48.2552 27.8973L48.7296 27.5415C49.0737 27.1889 49.0351 27.1478 48.8919 26.9956ZM51.8134 27.6601C52.0151 27.3724 52.0494 27.1842 51.8134 26.9485C51.5699 26.7051 51.2689 26.7173 50.9831 26.9485L50.7459 27.0671L51.1017 27.4229C51.4679 27.8395 51.6007 27.9637 51.8134 27.6601ZM41.3759 28.609C41.8975 28.4232 42.0098 28.1973 41.7318 27.6601C41.6005 27.4065 41.5022 27.2966 41.1387 27.3043C39.8953 27.3306 38.0641 28.3462 36.8688 29.5578C36.5448 29.8863 35.9755 30.4962 35.5642 30.9811C35.1529 31.466 34.6836 31.9775 34.6153 32.0486C34.4204 32.2517 34.4715 32.5958 34.7339 32.8788C34.8661 33.0214 35.0388 33.1161 35.0897 33.1161C35.1405 33.1161 35.5504 32.8112 35.92 32.4044C36.0617 32.2485 36.1983 32.0977 36.3298 31.9526C37.2334 30.9556 37.8955 30.2252 38.2921 29.9136C38.7518 29.5526 39.0826 29.4252 41.3759 28.609ZM50.4501 28.1964C50.7935 28.5513 50.8688 28.629 51.1017 28.3717C51.1153 28.3568 51.1283 28.3428 51.1406 28.3296C51.2896 28.1694 51.3339 28.1219 50.9831 27.7787L50.5087 27.4229L50.2715 27.5415L50.1529 27.7787L50.3901 28.1345C50.411 28.156 50.4309 28.1766 50.4501 28.1964ZM10.0635 27.8973L9.82632 27.6601C9.79307 27.6248 9.76184 27.59 9.7335 27.5584C9.66356 27.4806 9.61115 27.4222 9.5891 27.4229C9.55803 27.424 9.29848 27.5837 9.11467 27.7787C8.76882 28.1458 8.76 28.3854 9.11467 28.609C9.23476 28.6847 9.43499 28.5506 9.70771 28.2531L10.0635 27.8973ZM11.3682 28.4904C11.6286 28.2549 11.6436 28.1961 11.2496 27.7787L11.2199 27.7472C11.0487 27.5658 10.9139 27.4229 10.8938 27.4229C10.877 27.4229 10.8114 27.4936 10.727 27.5846C10.7046 27.6087 10.681 27.6341 10.6566 27.6601L10.4194 27.8973L10.7752 28.2531C10.7986 28.276 10.8207 28.2977 10.8416 28.3181C11.1587 28.6289 11.1857 28.6553 11.3682 28.4904ZM49.6002 27.7038C49.5875 27.6902 49.574 27.6757 49.5598 27.6601C49.3128 27.3874 49.234 27.3809 48.8482 27.7787L48.4924 28.1345L48.7296 28.3717L48.9668 28.609L49.4412 28.2531C49.7849 27.9015 49.7456 27.8594 49.6002 27.7038ZM19.8678 29.0294C19.6259 28.8784 19.3951 28.7344 19.1963 28.609C18.9167 28.4325 18.6524 28.2606 18.435 28.1193C18.1458 27.9312 17.9398 27.7972 17.8916 27.7787C17.7977 27.7427 17.6178 27.832 17.4172 28.0159L17.0614 28.3717L17.2986 28.609C17.3801 28.6829 17.5214 28.7772 17.6754 28.8798C17.8297 28.9828 17.9967 29.0941 18.1288 29.202C18.7651 29.7213 19.889 30.7372 20.0266 30.8625C20.0869 30.9175 20.3741 31.1592 20.7382 31.4555C20.9148 31.5993 21.1912 31.8428 21.5004 32.1154C21.8289 32.4049 22.1945 32.7272 22.5173 32.9974C23.1443 33.5223 23.7816 33.9459 23.822 33.9463C24.049 33.9489 23.6155 33.2065 22.9918 32.4044L22.986 32.397C22.5862 31.8829 22.5173 31.7943 22.5173 31.3369V30.7439L21.4499 30.0323C21.0283 29.754 20.4191 29.3736 19.8678 29.0294ZM23.5848 29.3206C23.2736 29.1446 23.0266 28.3367 23.229 28.1345C23.3334 28.0302 23.3679 28.077 23.5409 28.3123C23.5547 28.3309 23.5692 28.3507 23.5848 28.3717C23.6462 28.4547 23.8418 28.6014 24.0883 28.7864C24.2963 28.9424 24.5405 29.1256 24.7709 29.3206C25.1127 29.61 25.5492 30.0662 25.9344 30.4689C26.1167 30.6593 26.2874 30.8379 26.4314 30.9811C27.0994 31.646 27.2868 31.8365 27.2616 32.0486C27.2448 32.1909 27.2105 32.2637 27.143 32.2858C27.0757 32.3079 26.7684 32.1282 26.4314 31.8114C26.0944 31.4947 25.4771 30.9192 25.1267 30.6253C24.9537 30.4802 24.7418 30.3219 24.5466 30.1762C24.3465 30.0268 24.164 29.8905 24.0592 29.795C23.9587 29.7035 23.8619 29.5992 23.7802 29.5112C23.6936 29.4179 23.624 29.3428 23.5848 29.3206ZM50.449 28.5327C50.3947 28.4853 50.3331 28.4314 50.2715 28.3717C50.1944 28.2971 50.1228 28.2202 50.0639 28.1572C49.9871 28.0748 49.9322 28.0159 49.9157 28.0159C49.8342 28.0159 49.204 28.7539 49.204 28.8462C49.204 28.8757 49.2768 28.9416 49.3806 29.0356C49.434 29.084 49.4957 29.1399 49.5598 29.202L49.9157 29.5578L50.2715 29.202C50.4602 29.0192 50.6273 28.7872 50.6273 28.7276C50.6273 28.6886 50.5513 28.6221 50.449 28.5327ZM11.0124 28.8462L10.6566 28.4904C10.4569 28.2859 10.2142 28.1345 10.1821 28.1345C10.1612 28.1345 10.1011 28.199 10.0064 28.3006C9.95597 28.3547 9.89571 28.4193 9.82632 28.4904L9.47049 28.8462L9.82632 29.202L10.1821 29.6764L10.6566 29.202L11.0124 28.8462ZM48.7296 28.8462C48.8046 28.7274 48.7473 28.6408 48.611 28.4904C48.4125 28.2711 48.3392 28.3104 47.9492 28.5194C47.8987 28.5465 47.8428 28.5764 47.7807 28.609L47.3063 28.8462L47.7807 28.9648C48.275 29.1848 48.5303 29.1619 48.7296 28.8462ZM52.525 28.8462L52.0506 28.609C51.5088 28.3257 51.4409 28.3064 51.2204 28.609C51.1311 28.7314 51.0904 28.774 51.0946 28.8117C51.0985 28.8468 51.1414 28.8776 51.2204 28.9648C51.4364 29.2033 51.5157 29.2236 52.0506 28.9648L52.525 28.8462ZM8.99606 28.8462L8.87746 28.609C8.61777 28.3328 8.57373 28.3335 8.0472 28.609L7.57277 28.8462L8.0472 29.0834L8.52163 29.3206L8.75885 29.0834L8.99606 28.8462ZM12.6729 28.9648C12.903 28.8933 12.8539 28.8275 12.4357 28.609C11.9441 28.352 11.7538 28.437 11.6054 28.609C11.3596 28.894 11.35 28.9654 11.6054 29.202C11.8615 29.4392 11.9419 29.3826 12.188 29.2094L12.1985 29.202C12.34 29.1024 12.541 29.0057 12.6729 28.9648ZM48.9668 29.795L49.3226 30.1509L49.5598 29.9136L49.7971 29.6764L49.3226 29.3206L48.9668 28.9648L48.7296 29.202L48.611 29.4392L48.9668 29.795ZM51.1483 29.252C51.1337 29.2366 51.1181 29.2201 51.1017 29.202C50.9083 28.9884 50.9008 28.997 50.7018 29.225C50.6516 29.2825 50.5893 29.3539 50.5087 29.4392L50.1529 29.795L50.3901 29.9136L50.5087 30.1509L50.9831 29.795C51.332 29.4465 51.2918 29.404 51.1483 29.252ZM9.70771 30.1509C9.96279 29.9202 9.92829 29.8103 9.5891 29.4392C9.2555 29.0741 9.21732 29.0763 8.99606 29.3206C8.81726 29.518 8.82164 29.5221 9.04515 29.7323C9.09626 29.7804 9.15882 29.8393 9.23328 29.9136C9.31383 29.9941 9.37253 30.0592 9.41773 30.1092C9.56123 30.2682 9.56876 30.2765 9.70771 30.1509ZM11.4267 29.3725C11.4087 29.3567 11.3892 29.3396 11.3682 29.3206C11.3048 29.2633 11.2833 29.1808 11.27 29.1298C11.2626 29.1014 11.2577 29.0828 11.2496 29.0834C11.1878 29.0883 10.7329 29.4493 10.538 29.6764C10.4103 29.8253 10.4203 29.8335 10.5339 29.9262C10.5665 29.9528 10.6077 29.9864 10.6566 30.0323L10.8938 30.2695L11.2496 29.9136C11.6266 29.5478 11.6178 29.54 11.4267 29.3725ZM40.8289 30.4731C41.2928 30.1343 41.6131 29.9003 41.6131 29.795C41.6131 29.5317 41.2938 29.5836 40.9015 29.9136C40.7128 30.0723 40.4945 30.1494 40.4271 30.1509C40.3597 30.1523 40.3085 30.2283 40.3085 30.2695C40.3085 30.2954 40.2562 30.3146 40.191 30.3387C40.1529 30.3528 40.1104 30.3685 40.0712 30.3881C39.9723 30.4375 39.7223 30.6189 39.2817 30.9384C38.8202 31.273 38.1496 31.7593 37.2247 32.4044C36.6316 32.8181 35.9767 33.2461 35.8014 33.3533C35.5591 33.5015 35.5603 33.5978 35.5634 33.8481C35.5638 33.8785 35.5642 33.9111 35.5642 33.9463C35.5642 34.1873 35.6055 34.3028 35.6828 34.3021C35.7197 34.3019 35.803 34.2281 35.9206 34.1239C36.0178 34.0379 36.1385 33.931 36.2758 33.8277C36.4547 33.6932 36.6572 33.5516 36.8251 33.4343C36.9422 33.3524 37.0425 33.2823 37.1061 33.2347C37.1623 33.1925 37.274 33.1167 37.4155 33.0206C37.6626 32.8528 38.0006 32.6232 38.2921 32.4044C39.077 31.8154 39.5013 31.4853 39.8366 31.2244C40.1548 30.9768 40.3928 30.7917 40.7829 30.5067L40.8289 30.4731ZM48.8482 30.6253C49.0176 30.4382 49.0648 30.3672 48.7296 30.0323C48.3251 29.6281 48.2461 29.6283 48.018 29.9136C47.8071 30.1772 47.8231 30.2287 48.018 30.5067C48.2104 30.7813 48.6105 30.8877 48.8482 30.6253ZM51.8134 30.6253C52.0159 30.4018 52.0088 30.1923 51.8134 29.9136C51.7295 29.7938 51.6187 29.6764 51.5762 29.6764C51.5335 29.6764 51.306 29.834 51.1017 30.0323L50.7459 30.3881L50.9831 30.6253C51.2647 30.8531 51.6065 30.8536 51.8134 30.6253ZM9.35189 30.5067L8.99606 30.1509C8.57649 29.7215 8.50175 29.7923 8.28442 30.0323C8.09287 30.2437 8.11081 30.6051 8.28442 30.7439C8.57939 30.9798 8.87361 30.9702 9.11467 30.7439L9.35189 30.5067ZM12.1985 30.6253C12.3133 30.4109 12.3208 30.3676 12.1985 30.1509C11.9937 29.7879 11.8414 29.7853 11.4868 30.1509C11.1092 30.5402 11.1713 30.6559 11.4868 30.8625C11.7843 31.0572 12.0222 30.9542 12.1985 30.6253ZM49.9157 31.3369L50.1529 30.8625L50.3901 30.3881L50.1529 30.1509L49.9157 29.9136L49.6785 30.1509L49.4412 30.3881L49.6785 30.8625L49.9157 31.3369ZM10.6566 30.5067L10.538 30.2695C10.4262 30.1505 10.2333 30.1508 10.1852 30.1509L10.1821 30.1509C10.0824 30.1509 9.6736 30.5552 9.70771 30.6253C9.71076 30.6316 9.71855 30.6463 9.72992 30.6679C9.77185 30.7475 9.86257 30.9197 9.94493 31.0997C10.0497 31.3287 10.1521 31.4556 10.1821 31.4555C10.2122 31.4555 10.4194 31.2366 10.538 30.9811L10.6566 30.5067ZM32.9548 33.2347C33.3219 33.019 33.3571 32.7087 33.0734 32.4044C32.8461 32.1606 32.5066 32.2089 31.8873 32.4044C31.5647 32.5064 29.6877 33.5655 28.5663 34.3021C28.5091 34.3397 28.3881 34.4041 28.2339 34.4862C28.0249 34.5974 27.7548 34.7412 27.4988 34.8952L26.6686 35.4882V35.9626C26.6686 36.7612 26.8544 36.7436 27.9733 36.0812C28.8951 35.5356 30.1949 34.794 31.1416 34.2538C31.4297 34.0893 31.6852 33.9436 31.8873 33.8277C32.091 33.7109 32.3347 33.5775 32.5434 33.4632C32.7215 33.3657 32.8741 33.2821 32.9548 33.2347ZM38.5293 42.7233C42.1755 40.6115 44.6239 37.5153 46.1202 33.2347C46.1451 33.1636 46.2628 33.0887 46.3574 33.1161C46.452 33.1434 47.9801 33.4974 49.6785 33.8277C50.7534 34.0368 51.7248 34.2106 52.3093 34.3152C52.6483 34.3759 52.8573 34.4133 52.8809 34.4207C53.0218 34.4654 52.8352 35.2034 52.2878 36.6743C51.1627 39.6975 49.1487 42.7156 46.7133 45.0954C44.6444 47.117 42.8745 48.4237 40.4271 49.6025C37.5509 50.9878 35.0574 51.6333 31.7687 51.856C28.8653 52.0526 26.0185 51.6301 23.1104 50.67C23.0442 50.6481 22.9806 50.6271 22.9193 50.6069C21.5783 50.1646 21.3646 50.0941 19.908 49.3653C16.8615 47.841 14.171 45.6731 11.8426 42.7233C10.7412 41.3278 9.41624 39.0256 8.75885 37.3859C8.45388 36.6254 7.77274 34.5765 7.80999 34.5393C7.82313 34.5262 8.26728 34.4431 9.11381 34.2849C10.0541 34.1091 11.4907 33.8406 13.3845 33.4719C13.6389 33.4224 13.8749 33.366 14.0685 33.3197C14.351 33.2522 14.5433 33.2062 14.5706 33.2347C14.5907 33.2556 14.6242 33.3688 14.6728 33.5333C14.733 33.7369 14.8164 34.019 14.9264 34.3021C16.193 37.5604 18.4684 40.3773 21.3313 42.2488C22.1736 42.7995 23.6492 43.5044 24.1778 43.6721C24.3935 43.7405 24.5983 43.8706 24.6523 43.9093C24.7635 43.9891 25.6791 44.2551 26.1942 44.3838C30.4491 45.4474 34.8511 44.8537 38.5293 42.7233ZM14.3334 34.658C14.2621 34.4425 14.1455 34.2509 14.0962 34.1835C14.09 34.175 14.0841 34.1667 14.0785 34.1588C13.9862 34.0275 13.9501 33.9761 13.0287 34.1835C12.7085 34.2556 12.0186 34.3833 11.2928 34.5177C11.0408 34.5643 10.7846 34.6118 10.538 34.658C9.32258 34.8855 8.75885 35.0417 8.75885 35.1324C8.75885 35.3457 9.48741 37.1259 9.94493 38.0976C11.1165 40.5854 12.377 42.4336 14.452 44.5024C17.8676 47.9078 21.9776 50.1117 26.6686 50.9072C28.1371 51.1563 31.1076 51.1798 32.599 51.0258C34.7535 50.8034 37.1614 50.1887 39.1224 49.3653C40.722 48.6936 42.8669 47.4499 44.3411 46.2815C45.2989 45.5224 47.5254 43.4063 48.1366 42.6047C49.6671 40.5966 50.9995 37.9686 51.6948 35.9626L52.0506 35.0138L49.4412 34.5393C48.0051 34.258 46.7699 34.0641 46.7133 34.0649C46.6565 34.0658 46.5753 34.2565 46.4761 34.5393C46.1424 35.4908 45.1109 37.2506 44.3411 38.3348C42.7856 40.5256 40.4551 42.6362 38.1735 43.7907C35.1528 45.3192 32.0289 45.8676 28.8035 45.5698C23.5518 45.085 19.0128 42.3306 15.9939 37.8604C15.4673 37.0805 14.5489 35.3095 14.3334 34.658ZM34.6233 34.4482C34.6303 34.3992 34.6364 34.3569 34.6153 34.3021C34.4862 33.9659 33.9429 34.2175 33.0734 35.1324C33.0141 35.1948 32.9378 35.2751 32.8478 35.3699C32.3678 35.8753 31.4957 36.7935 30.7012 37.6231C28.9714 39.4295 28.7031 39.7305 28.8035 40.1139C28.8954 40.4651 29.1364 40.4147 29.7524 39.7581C30.0759 39.4133 31.3077 38.1087 32.4804 36.9115C33.6635 35.7036 34.6153 34.6373 34.6153 34.5393C34.6153 34.5047 34.6195 34.4754 34.6233 34.4482ZM28.5663 38.8092C28.8698 38.9967 32.0215 35.8377 31.8873 35.4882C31.8036 35.2703 31.0187 35.3741 30.5826 35.6068C30.1614 35.8317 29.8133 36.1379 29.0407 37.1487C28.5574 37.781 28.4477 38.0376 28.4477 38.3348C28.4477 38.5361 28.5128 38.7762 28.5663 38.8092ZM48.9668 36.4371C49.3396 36.3199 49.4826 36.132 49.5598 35.9626C49.6623 35.7378 49.6857 35.7477 49.83 35.809C49.8546 35.8195 49.8829 35.8315 49.9157 35.844C50.0723 35.9041 50.1753 36.3744 50.0343 36.4371C50.011 36.4474 49.9776 36.5225 49.9295 36.6306C49.894 36.7105 49.8504 36.8084 49.7971 36.9115C49.1177 38.2224 48.5484 39.2403 48.4924 39.2836C48.4575 39.3106 48.3091 39.4339 48.2552 39.5209C48.2012 39.6078 47.9964 39.9198 47.7807 40.2325C47.6615 40.4054 47.5284 40.5888 47.4136 40.747C47.3207 40.8749 47.2398 40.9864 47.1877 41.0628L47.1728 41.0846C47.0557 41.2563 46.8775 41.5178 46.7133 41.6558C46.542 41.7999 46.23 42.1761 46.0016 42.486C45.5224 43.1365 45.0366 43.5869 44.6969 43.6721C44.5663 43.7048 44.4597 43.747 44.4597 43.7907C44.4597 43.9387 43.4455 44.9454 43.155 45.0954C42.9963 45.1775 42.7641 45.2461 42.6806 45.214C42.5971 45.1821 42.3213 45.2196 42.0876 45.3326C42.0262 45.3623 41.9659 45.3941 41.9081 45.4245C41.7325 45.5168 41.5802 45.597 41.4945 45.5698C41.2385 45.4886 41.1006 44.8168 41.2573 44.3838C41.3409 44.1526 41.331 44.047 41.2573 43.9093C40.9469 43.3297 41.2852 43.3818 41.969 44.0279C42.2756 44.3177 42.5964 44.5887 42.6806 44.621C42.8458 44.6844 43.8667 43.8813 43.8667 43.6721C43.8667 43.5199 43.668 43.5172 43.5109 43.6721C43.3316 43.8488 43.0792 43.4048 43.155 43.0791C43.2229 42.7879 43.629 42.486 43.8667 42.486C44.126 42.486 44.4597 42.748 44.4597 42.9605C44.4597 43.2128 44.5334 43.1372 44.8779 42.7833C44.9298 42.73 44.9879 42.6704 45.0528 42.6047C45.5516 42.099 45.6887 41.8388 45.5272 41.5372C45.385 41.2717 45.3677 40.917 45.5272 40.7069C45.6816 40.5037 46.4058 40.52 46.5947 40.7069C46.6938 40.805 46.7635 40.8246 46.8319 40.7069C46.847 40.6808 46.8627 40.6414 46.8816 40.5938C46.9213 40.494 46.9754 40.3581 47.0691 40.2325C47.1191 40.1654 47.1795 40.0894 47.2362 40.0181C47.3363 39.892 47.4249 39.7805 47.4249 39.7581C47.4249 39.7335 47.1897 39.5931 46.8871 39.4124C46.758 39.3353 46.6166 39.2509 46.4761 39.165C46.006 38.878 45.5316 38.5763 45.4086 38.4534C45.1559 38.2009 45.1873 37.8604 45.4086 37.8604C45.5353 37.8604 46.735 38.6379 47.4249 39.165C47.5535 39.2633 47.5975 39.2836 47.6621 39.2836C47.7584 39.2836 48.9668 37.3138 48.9668 37.1487C48.9668 37.1313 48.9131 37.136 48.8473 37.1417C48.8094 37.1451 48.7675 37.1487 48.7296 37.1487C48.4946 37.1487 48.1366 37.5717 48.1366 37.8604C48.1366 37.9056 48.1417 37.9457 48.1462 37.9799C48.1533 38.0354 48.1585 38.0756 48.1366 38.0976C48.0023 38.2318 47.7807 37.9673 47.7807 37.6231C47.7807 37.1287 48.2588 36.6595 48.9668 36.4371ZM11.2496 36.4371C11.3576 36.3394 11.5221 36.2395 11.724 36.1998C12.0637 36.1331 12.6175 36.0975 12.7915 36.1998C12.9838 36.3129 12.7832 36.4371 12.4357 36.4371C11.9231 36.4371 11.6816 36.5528 11.6054 36.7929C11.5359 37.0115 11.8404 37.7804 12.0799 37.979C12.1401 38.029 12.1585 38.065 12.1662 38.0628C12.1751 38.0603 12.1694 38.0057 12.1985 37.8604C12.2756 37.4751 12.6709 37.3731 13.1473 37.5045C13.561 37.6186 13.9776 37.9006 13.9776 38.0976C13.9776 38.3865 13.702 38.8092 13.5032 38.8092C13.3309 38.8092 13.2113 38.7443 13.2659 38.4534C13.3173 38.1797 13.3102 38.066 13.1473 37.979C12.8106 37.7989 12.7915 37.8872 12.7915 38.3348C12.7915 38.763 12.6671 38.9278 12.3171 38.9278C12.0879 38.9278 11.4654 38.1869 11.2496 37.7417C10.986 37.1976 10.989 36.6727 11.2496 36.4371ZM49.7971 38.572C49.5505 38.572 49.4836 38.1941 49.6785 37.979C49.8864 37.7495 50.2227 37.8422 50.2715 38.0976C50.311 38.3048 50.0608 38.572 49.7971 38.572ZM13.2659 39.5209C13.2659 39.4586 13.2953 39.3822 13.3845 39.2836C13.5774 39.0707 14.0962 39.0832 14.0962 39.2836C14.0962 39.36 14.0383 39.382 13.9776 39.4023C13.9047 39.4264 13.9574 39.6048 14.0962 39.8767C14.362 40.3974 14.3952 40.3498 14.764 39.8208C14.7781 39.8006 14.7927 39.7797 14.8078 39.7581C14.9713 39.5244 15.0755 39.5209 15.2823 39.5209C15.4372 39.5209 15.6019 39.581 15.6381 39.6395C15.7891 39.8835 14.4198 41.0467 14.0962 40.9442C13.9238 40.8894 13.2659 39.7573 13.2659 39.5209ZM46.0016 41.4186C46.0801 41.4971 46.3574 41.4101 46.3574 41.3C46.3574 41.2519 46.2281 41.1814 46.1202 41.1814C45.9292 41.1814 45.8836 41.3007 46.0016 41.4186ZM13.859 42.9605C13.6579 42.6204 13.6859 41.9828 13.859 41.7744C14.0373 41.5597 14.0962 41.718 14.0962 42.1302C14.0962 42.59 14.3147 42.8783 14.6892 42.9605C15.2046 43.0736 15.4596 42.923 15.4009 42.486C15.3991 42.473 15.3974 42.4603 15.3958 42.4481C15.3527 42.13 15.3451 42.0738 15.6381 41.893C15.8273 41.7764 16.0629 41.7591 16.2311 41.7744C16.2458 41.7757 16.2599 41.777 16.2735 41.7781C16.4823 41.7962 16.563 41.8032 16.5869 42.0116C16.6045 42.1638 16.4631 42.54 16.3497 42.7233L16.2311 42.9605L16.8242 43.5535C17.4705 44.1153 17.6019 44.1357 17.5358 43.7907C17.4526 43.3552 18.0541 42.9414 18.6033 43.0791C18.8175 43.1328 18.8405 43.1827 18.8405 43.5535C18.8405 43.8742 18.72 44.0579 18.4847 44.3838C18.1508 44.8462 17.9444 45.0904 17.773 45.0954C17.7254 45.0968 17.5618 44.9539 17.3448 44.7643C17.2926 44.7188 17.2374 44.6706 17.18 44.621C16.8833 44.365 16.4863 44.0246 16.3497 43.9093C16.2131 43.7941 16.137 43.6269 16.1125 43.5535C16.0791 43.4535 15.8234 43.4136 15.2823 43.4349C14.4363 43.4683 14.0944 43.3589 13.859 42.9605ZM19.0777 42.8419C18.8092 42.9411 18.6079 42.7637 18.6033 42.3674C18.6007 42.1495 18.6549 42.0116 18.8405 42.0116C18.9912 42.0116 19.1216 42.085 19.1963 42.2488C19.3566 42.6002 19.3277 42.7494 19.0777 42.8419ZM15.9357 42.5C15.9682 42.5112 15.9939 42.52 15.9939 42.486C15.9939 42.4322 15.9292 42.3674 15.8753 42.3674C15.8214 42.3674 15.7567 42.4322 15.7567 42.486C15.7567 42.52 15.7824 42.5112 15.8149 42.5C15.834 42.4934 15.8554 42.486 15.8753 42.486C15.8952 42.486 15.9167 42.4934 15.9357 42.5ZM40.4271 42.9605C40.4911 42.9605 40.5969 42.831 40.6643 42.7233C40.7903 42.5218 40.9867 42.5008 41.2573 42.6047C41.4576 42.6815 41.4564 43.0791 41.2573 43.0791C41.1764 43.0791 41.0093 43.2086 40.9015 43.3163C40.6723 43.5453 40.1517 43.5257 40.0712 43.3163C40.0112 43.1597 40.2394 42.9605 40.4271 42.9605ZM18.2109 43.9108C18.2191 43.8787 18.2297 43.837 18.2475 43.7907C18.2842 43.695 18.2971 43.6031 18.2475 43.5535C18.1148 43.421 18.023 43.7202 18.1288 43.9093C18.1855 44.0104 18.1912 43.988 18.2109 43.9108ZM41.865 44.7929C41.858 44.7764 41.8504 44.7582 41.8504 44.7396C41.8504 44.721 41.858 44.7028 41.865 44.6863C41.8772 44.6573 41.8872 44.6333 41.8504 44.621C41.7924 44.6017 41.7318 44.6498 41.7318 44.7396C41.7318 44.8294 41.7924 44.8775 41.8504 44.8582C41.8872 44.8459 41.8772 44.8219 41.865 44.7929ZM22.5173 45.8071C22.3835 45.5659 22.3868 45.5347 22.5173 45.4512C22.7382 45.3101 22.7904 45.3474 22.9918 45.5698C23.1317 45.7244 23.1906 45.7986 23.1104 45.9257C22.9529 46.1751 22.6868 46.1126 22.5173 45.8071ZM33.9037 46.5187C33.8726 46.4379 33.8726 46.2437 33.9037 46.1629C33.9774 45.9708 34.3348 45.9681 34.4967 46.1629C34.5085 46.1771 34.5221 46.1943 34.5372 46.2136C34.6122 46.3088 34.726 46.4533 34.8525 46.5187C35.043 46.6171 35.0897 46.7076 35.0897 46.8745C35.0897 46.9012 35.0904 46.9249 35.091 46.946C35.0951 47.0901 35.0957 47.1117 34.8525 47.1117C34.6746 47.1117 34.4294 47.1806 34.3781 47.2304C34.3269 47.2801 34.1705 47.2594 34.0223 47.2304C33.8028 47.1874 33.785 47.1045 33.785 46.8745C33.785 46.7193 33.8514 46.6373 33.9037 46.6373C33.9502 46.6373 33.9384 46.6073 33.9133 46.5434C33.9102 46.5357 33.907 46.5275 33.9037 46.5187ZM36.7502 47.7048C36.5519 47.466 36.6869 46.777 36.9874 46.5187C37.2878 46.2605 37.5134 46.187 37.8177 46.4001C38.1308 46.6191 38.165 46.8745 37.8177 46.8745C37.3871 46.8745 37.2247 46.9835 37.2247 47.2304C37.2247 47.5307 37.5482 47.5355 38.0549 47.349C38.8066 47.0724 38.8039 47.0997 38.7717 47.4162C38.77 47.4326 38.7683 47.4497 38.7666 47.4676C38.7427 47.7164 38.6985 47.7321 38.1458 47.9287C37.9727 47.9902 37.7497 48.0695 37.4619 48.1792C36.5472 48.5278 36.2149 48.6257 36.1572 48.535C36.1413 48.5101 36.1348 48.4995 36.1336 48.5001C36.1305 48.5015 36.158 48.5682 36.1572 48.6536C36.1563 48.7633 36.0609 48.7671 35.92 48.7723C35.7037 48.7803 35.5345 48.8359 35.2374 48.9336C35.0767 48.9864 34.8785 49.0515 34.6153 49.1281C34.2379 49.2379 33.6611 49.2438 33.3106 49.2467C32.9602 49.2496 32.4588 49.3167 32.2431 49.3653C32.0275 49.4139 31.6555 49.4677 31.4129 49.4839L31.3927 49.4852C31.0083 49.5106 30.967 49.5134 30.8199 49.8397C30.5852 50.3599 30.1049 50.5981 29.278 50.5514C28.3823 50.5008 28.2105 50.209 28.2105 49.4839C28.2105 49.0602 28.2163 48.9938 28.4477 48.7723C28.6909 48.5394 28.9221 48.4059 28.9221 48.535C28.9221 48.5603 28.9157 48.7945 28.8035 49.0095C28.5638 49.4691 28.5698 49.7059 28.9221 49.8397C29.241 49.9609 29.7769 49.9656 30.1082 49.8397C30.1207 49.835 30.1327 49.8305 30.1442 49.8262C30.3721 49.7411 30.4017 49.73 30.3454 49.1281C30.3358 49.0246 30.3255 48.9322 30.3164 48.8498C30.2827 48.5464 30.2642 48.3791 30.3454 48.2978C30.5449 48.0986 30.6548 48.1403 30.8199 48.535L30.9385 48.8909H31.5315C32.2494 48.8158 32.3915 48.6644 32.599 48.1792C32.7372 47.8556 32.8263 47.8234 33.0734 47.8234C33.3468 47.8234 33.7972 48.2159 33.9037 48.535C33.9286 48.6101 34.0131 48.6133 34.3781 48.535C34.8298 48.4383 34.9711 48.3932 34.9711 48.1792C34.9711 47.8655 35.039 47.5862 35.2083 47.5862C35.2823 47.5862 35.4097 47.6321 35.4455 47.8234C35.5221 48.2314 35.7261 48.3468 36.3944 48.0606C36.7839 47.8938 36.8533 47.8289 36.7502 47.7048ZM20.501 47.7048C20.4038 47.3989 20.6617 46.713 20.9754 46.5187C21.2819 46.3288 21.5685 46.2443 21.5685 46.4001C21.5685 46.4576 21.4014 46.6967 21.2126 46.8745C21.0239 47.0524 20.8568 47.291 20.8568 47.349C20.8568 47.5814 21.3697 47.9306 21.8057 48.0606C22.2216 48.1846 22.3348 48.2097 22.5173 48.0606C22.6317 47.9672 22.721 47.6886 22.7545 47.4676C22.8698 46.7055 23.3476 46.5125 23.3476 47.2304C23.3476 47.2469 23.3475 47.2629 23.3475 47.2783C23.3465 47.6074 23.3463 47.6823 23.822 47.8234C24.5873 48.0505 24.7225 47.9373 24.6523 47.5862C24.5903 47.2764 24.7795 46.9931 25.0081 46.9931C25.1928 46.9931 25.23 47.6454 25.1267 48.1792L25.1251 48.1874C25.0451 48.6006 25.0295 48.6812 24.7709 48.6536C24.6174 48.6373 24.2028 48.5356 23.822 48.4164L23.1104 48.1792L22.8731 48.4164C22.6471 48.6423 22.466 48.6536 22.0429 48.6536C21.3297 48.6536 20.6723 48.2438 20.501 47.7048ZM29.5152 47.7048C29.2927 47.566 29.3215 47.1898 29.5152 47.1117C29.6547 47.0555 29.6579 47.0582 29.7363 47.1251C29.7663 47.1507 29.8072 47.1857 29.871 47.2304C30.3159 47.5416 29.9765 47.9928 29.5152 47.7048ZM33.0734 48.6536C33.1543 48.6536 33.3106 48.6158 33.3106 48.535C33.3106 48.4542 33.1543 48.4164 33.0734 48.4164C32.9925 48.4164 32.9548 48.4542 32.9548 48.535C32.9548 48.6158 32.9925 48.6536 33.0734 48.6536ZM24.0592 49.6025C23.6845 49.6025 23.3977 49.0141 23.7034 48.8909C23.9514 48.7908 24.0214 48.7709 24.1778 49.0095C24.3609 49.2886 24.3045 49.6025 24.0592 49.6025ZM25.8383 53.8724C25.9168 53.4738 26.1039 53.1418 26.1942 53.0421C26.44 52.7707 26.5019 52.8042 26.4314 53.1607C26.1609 54.529 25.5486 56.0732 25.3639 55.8887C25.339 55.8638 25.375 55.6431 25.4825 55.2957C25.5901 54.9483 25.7599 54.271 25.8383 53.8724ZM27.2616 54.2282C27.2616 53.9271 27.6342 53.4274 27.9733 53.1607C28.2887 52.9128 28.7349 52.806 28.8035 53.0421C28.8309 53.1364 28.8457 53.6139 28.8035 53.991C28.7961 54.0576 28.7888 54.1196 28.7819 54.1777C28.7361 54.5659 28.7105 54.7831 28.8035 55.0584C28.9223 55.4102 28.9084 55.5742 28.8035 55.7701C28.5334 56.2746 28.4192 56.0229 28.3291 55.0584L28.2105 54.3468L27.9733 54.4654C27.5535 54.5857 27.2616 54.517 27.2616 54.2282ZM30.464 53.6352C30.426 53.5445 30.4526 53.326 30.5826 53.1607L30.8199 52.9235L30.9385 53.1607C31.0166 53.3452 31.1507 53.799 31.1757 54.1096C31.2006 54.4202 31.2506 54.6756 31.2943 54.7026C31.3379 54.7296 31.592 54.501 31.8873 54.1096C32.1826 53.7181 32.5779 53.2913 32.7176 53.1607L32.9548 52.9235V53.1607C32.9548 53.3003 32.8768 53.3799 32.8362 53.3979C32.6884 53.4634 31.8701 54.5961 31.4129 55.2957C30.8839 56.1052 30.8223 56.0619 30.8199 55.1771C30.8186 54.6974 30.6728 54.1329 30.464 53.6352ZM27.7361 53.8724C27.9091 54.0453 28.4477 53.879 28.4477 53.6352C28.4477 53.3654 28.082 53.3842 27.8547 53.6352C27.8152 53.6788 27.7816 53.7097 27.7556 53.7336C27.6895 53.7944 27.6731 53.8095 27.7361 53.8724ZM33.9037 54.1096C34.1106 53.8573 34.3574 53.5923 34.4967 53.5166C35.029 53.2274 35.4398 53.5053 35.4455 54.1096C35.4485 54.416 35.1399 54.9329 34.8525 55.2957C34.6627 55.5354 34.0705 55.6776 33.785 55.5329C33.6008 55.4394 33.5417 55.3812 33.5478 55.0584C33.5537 54.7474 33.6101 54.4675 33.9037 54.1096ZM34.9711 54.3468C34.9711 54.196 34.9172 54.0556 34.8525 53.991C34.6559 53.7945 34.539 53.8305 34.1409 54.2282C33.7122 54.6566 33.6041 54.8982 33.9037 55.0584C34.3328 55.288 34.9711 54.8457 34.9711 54.3468Z" fill="black"/>
</svg>
