<svg width="79" height="38" viewBox="0 0 79 38" fill="none" xmlns="http://www.w3.org/2000/svg">
<path d="M8.63632 37.6061C5.89651 37.6061 3.80742 36.8355 2.36902 35.2944C0.930624 33.719 0.211426 31.4758 0.211426 28.5647V1.13246H5.86227V28.9757C5.86227 30.2086 6.102 31.099 6.58147 31.647C7.09518 32.195 7.81438 32.4689 8.73906 32.4689C9.66374 32.4689 10.3658 32.195 10.8453 31.647C11.359 31.099 11.6159 30.2086 11.6159 28.9757V1.13246H17.0612V28.5647C17.0612 31.4758 16.342 33.719 14.9036 35.2944C13.4652 36.8355 11.3761 37.6061 8.63632 37.6061Z" fill="white"/>
<path d="M21.0858 1.13246H29.7162C32.5245 1.13246 34.6307 1.8859 36.0349 3.39279C37.439 4.89968 38.1411 7.10865 38.1411 10.0197V28.2051C38.1411 31.1162 37.439 33.3251 36.0349 34.832C34.6307 36.3389 32.5245 37.0924 29.7162 37.0924H21.0858V1.13246ZM29.6135 31.9552C30.5381 31.9552 31.2402 31.6812 31.7197 31.1333C32.2334 30.5853 32.4902 29.6949 32.4902 28.462V9.76283C32.4902 8.52992 32.2334 7.63949 31.7197 7.09153C31.2402 6.54357 30.5381 6.26959 29.6135 6.26959H26.7367V31.9552H29.6135Z" fill="white"/>
<path d="M50.1748 37.6061C47.435 37.6061 45.3459 36.8355 43.9075 35.2944C42.4691 33.719 41.7499 31.4758 41.7499 28.5647V1.13246H47.4008V28.9757C47.4008 30.2086 47.6405 31.099 48.12 31.647C48.6337 32.195 49.3529 32.4689 50.2776 32.4689C51.2022 32.4689 51.9043 32.195 52.3838 31.647C52.8975 31.099 53.1543 30.2086 53.1543 28.9757V1.13246H58.5997V28.5647C58.5997 31.4758 57.8805 33.719 56.4421 35.2944C55.0037 36.8355 52.9146 37.6061 50.1748 37.6061Z" fill="white"/>
<path d="M69.9704 37.6061C67.2306 37.6061 65.1586 36.8355 63.7545 35.2944C62.3503 33.719 61.6483 31.4758 61.6483 28.5647V26.5099H66.9909V28.9757C66.9909 31.3045 67.9669 32.4689 69.919 32.4689C70.878 32.4689 71.5972 32.195 72.0766 31.647C72.5903 31.0648 72.8472 30.1401 72.8472 28.873C72.8472 27.3661 72.5047 26.0475 71.8198 24.9174C71.1348 23.7529 69.8677 22.3659 68.0183 20.7563C65.6895 18.7014 64.0627 16.8521 63.138 15.2082C62.2134 13.5301 61.751 11.6464 61.751 9.55735C61.751 6.7148 62.4702 4.52296 63.9086 2.98182C65.347 1.40644 67.4361 0.618744 70.1759 0.618744C72.8815 0.618744 74.9192 1.40644 76.2891 2.98182C77.6932 4.52296 78.3953 6.74905 78.3953 9.66009V11.1499H73.0527V9.30049C73.0527 8.06758 72.813 7.17714 72.3335 6.62918C71.854 6.04698 71.152 5.75587 70.2273 5.75587C68.3437 5.75587 67.4019 6.90317 67.4019 9.19775C67.4019 10.4992 67.7443 11.7149 68.4293 12.8451C69.1485 13.9753 70.4328 15.3452 72.2821 16.9548C74.6452 19.0097 76.272 20.8762 77.1624 22.5543C78.0528 24.2324 78.498 26.2016 78.498 28.462C78.498 31.4073 77.7617 33.6676 76.2891 35.243C74.8507 36.8184 72.7445 37.6061 69.9704 37.6061Z" fill="white"/>
</svg>
