<svg width="16" height="16" viewBox="0 0 16 16" fill="none" xmlns="http://www.w3.org/2000/svg">
<g clip-path="url(#clip0_661_210)">
<path d="M7.99998 14.6666C11.6819 14.6666 14.6666 11.6819 14.6666 7.99998C14.6666 4.31808 11.6819 1.33331 7.99998 1.33331C4.31808 1.33331 1.33331 4.31808 1.33331 7.99998C1.33331 11.6819 4.31808 14.6666 7.99998 14.6666Z" stroke="white" stroke-width="1.33333" stroke-linecap="round" stroke-linejoin="round"/>
<path d="M1.33331 8H14.6666" stroke="white" stroke-width="1.33333" stroke-linecap="round" stroke-linejoin="round"/>
<path d="M7.99998 1.33331C9.6675 3.15888 10.6151 5.528 10.6666 7.99998C10.6151 10.472 9.6675 12.8411 7.99998 14.6666C6.33246 12.8411 5.38481 10.472 5.33331 7.99998C5.38481 5.528 6.33246 3.15888 7.99998 1.33331V1.33331Z" stroke="white" stroke-width="1.33333" stroke-linecap="round" stroke-linejoin="round"/>
</g>
<defs>
<clipPath id="clip0_661_210">
<rect width="16" height="16" fill="white"/>
</clipPath>
</defs>
</svg>
