<svg width="16" height="16" viewBox="0 0 16 16" fill="none" xmlns="http://www.w3.org/2000/svg">
<g clip-path="url(#clip0_661_789)">
<path d="M8 14.6666C11.6819 14.6666 14.6667 11.6819 14.6667 7.99998C14.6667 4.31808 11.6819 1.33331 8 1.33331C4.3181 1.33331 1.33333 4.31808 1.33333 7.99998C1.33333 11.6819 4.3181 14.6666 8 14.6666Z" stroke="#99D656" stroke-width="1.33333" stroke-linecap="round" stroke-linejoin="round"/>
<path d="M1.33333 8H14.6667" stroke="#99D656" stroke-width="1.33333" stroke-linecap="round" stroke-linejoin="round"/>
<path d="M8 1.33331C9.66752 3.15888 10.6152 5.528 10.6667 7.99998C10.6152 10.472 9.66752 12.8411 8 14.6666C6.33248 12.8411 5.38483 10.472 5.33333 7.99998C5.38483 5.528 6.33248 3.15888 8 1.33331V1.33331Z" stroke="#99D656" stroke-width="1.33333" stroke-linecap="round" stroke-linejoin="round"/>
</g>
<defs>
<clipPath id="clip0_661_789">
<rect width="16" height="16" fill="white"/>
</clipPath>
</defs>
</svg>
