<svg width="63" height="31" viewBox="0 0 63 31" fill="none" xmlns="http://www.w3.org/2000/svg">
<path d="M6.82486 30.2592C4.62181 30.2592 2.94198 29.6396 1.78538 28.4004C0.628784 27.1336 0.0504837 25.3299 0.0504837 22.9892V0.931138H4.59427V23.3196C4.59427 24.311 4.78704 25.027 5.17257 25.4676C5.58564 25.9082 6.16394 26.1285 6.90747 26.1285C7.651 26.1285 8.21553 25.9082 8.60106 25.4676C9.01414 25.027 9.22067 24.311 9.22067 23.3196V0.931138H13.5992V22.9892C13.5992 25.3299 13.0209 27.1336 11.8643 28.4004C10.7077 29.6396 9.02791 30.2592 6.82486 30.2592Z" fill="#1E1E1E"/>
<path d="M16.8354 0.931138H23.775C26.0331 0.931138 27.7267 1.53698 28.8558 2.74865C29.9848 3.96033 30.5494 5.73654 30.5494 8.07728V22.7C30.5494 25.0407 29.9848 26.817 28.8558 28.0286C27.7267 29.2403 26.0331 29.8461 23.775 29.8461H16.8354V0.931138ZM23.6924 25.7154C24.4359 25.7154 25.0004 25.4951 25.386 25.0545C25.799 24.6139 26.0056 23.8979 26.0056 22.9065V7.87074C26.0056 6.87937 25.799 6.16338 25.386 5.72277C25.0004 5.28216 24.4359 5.06185 23.6924 5.06185H21.3792V25.7154H23.6924Z" fill="#1E1E1E"/>
<path d="M40.2256 30.2592C38.0225 30.2592 36.3427 29.6396 35.1861 28.4004C34.0295 27.1336 33.4512 25.3299 33.4512 22.9892V0.931138H37.995V23.3196C37.995 24.311 38.1877 25.027 38.5733 25.4676C38.9863 25.9082 39.5646 26.1285 40.3082 26.1285C41.0517 26.1285 41.6162 25.9082 42.0018 25.4676C42.4148 25.027 42.6214 24.311 42.6214 23.3196V0.931138H46.9999V22.9892C46.9999 25.3299 46.4216 27.1336 45.265 28.4004C44.1084 29.6396 42.4286 30.2592 40.2256 30.2592Z" fill="#1E1E1E"/>
<path d="M56.143 30.2592C53.94 30.2592 52.2739 29.6396 51.1448 28.4004C50.0158 27.1336 49.4513 25.3299 49.4513 22.9892V21.3369H53.7472V23.3196C53.7472 25.1922 54.532 26.1285 56.1017 26.1285C56.8728 26.1285 57.4511 25.9082 57.8366 25.4676C58.2497 24.9994 58.4562 24.2559 58.4562 23.237C58.4562 22.0253 58.1808 20.9651 57.6301 20.0564C57.0793 19.1201 56.0604 18.0048 54.5733 16.7105C52.7007 15.0582 51.3927 13.5711 50.6492 12.2493C49.9056 10.8999 49.5339 9.38534 49.5339 7.70551C49.5339 5.41985 50.1122 3.65741 51.2688 2.4182C52.4254 1.15144 54.1052 0.518066 56.3082 0.518066C58.4838 0.518066 60.1223 1.15144 61.2238 2.4182C62.3529 3.65741 62.9174 5.44739 62.9174 7.78813V8.98603H58.6214V7.49898C58.6214 6.5076 58.4287 5.79161 58.0431 5.351C57.6576 4.88286 57.0931 4.64878 56.3495 4.64878C54.835 4.64878 54.0777 5.57131 54.0777 7.41636C54.0777 8.46281 54.353 9.44041 54.9038 10.3492C55.4821 11.2579 56.5148 12.3595 58.0018 13.6537C59.902 15.306 61.21 16.8069 61.926 18.1562C62.642 19.5056 63 21.089 63 22.9065C63 25.2748 62.4079 27.0923 61.2238 28.3591C60.0672 29.6258 58.3736 30.2592 56.143 30.2592Z" fill="#1E1E1E"/>
</svg>
